<svg width="552" height="50" viewBox="0 0 552 50" fill="none" xmlns="http://www.w3.org/2000/svg">
<mask id="mask0_372_18443" style="mask-type:luminance" maskUnits="userSpaceOnUse" x="0" y="0" width="552" height="50">
<path d="M0 0V49.671H551.362C551.362 22.238 529.123 0 501.69 0H0Z" fill="white"/>
</mask>
<g mask="url(#mask0_372_18443)">
<path d="M-95.4708 -105.452C-93.3888 -108.09 -92.1508 -110.642 -91.4558 -113.724C-90.6758 -117.206 -90.0138 -120.743 -89.4988 -124.309C-98.4388 -119.048 -106.153 -111.687 -112.107 -102.672C-120.082 -90.5806 -124.3 -76.3586 -124.3 -61.5436C-124.3 -21.9696 -93.9598 10.2283 -56.6668 10.2283C-19.3758 10.2283 10.9672 -21.9696 10.9672 -61.5436C10.9672 -64.1896 10.8272 -66.8357 10.5592 -69.4667H10.5512C10.5512 -69.4667 9.1442 -73.9546 10.3602 -79.0906H10.3432C10.3642 -79.1926 10.4082 -79.3326 10.4642 -79.4966C10.7172 -80.4566 11.0632 -81.4476 11.5402 -82.4316C11.5552 -82.4626 11.5632 -82.4946 11.5772 -82.5106C13.8642 -88.0436 19.5162 -98.5506 30.7032 -103.281C34.3172 -104.803 38.1082 -105.577 42.0682 -105.577C48.9372 -105.577 56.2842 -103.273 64.0432 -98.6757C80.3432 -89.0437 103.66 -71.1856 118.005 -27.4966C121.465 -16.9676 127.952 -8.58368 137.291 -2.56567C143.682 1.53932 149.378 3.15636 150.742 3.49835C151.709 3.68636 153.191 4.19337 156.416 5.59137C159.835 7.07437 163.255 8.79135 166.554 10.7043C177.394 16.9863 185.818 24.5263 191.587 33.1523C200.707 46.7573 202.737 62.6643 197.471 79.2123C197.36 80.3453 197.309 84.0293 198.67 87.8693C200.306 92.4983 203.315 95.5584 207.874 97.2444C218.203 101.054 225.653 112.98 230.007 132.658L230.055 132.938C232.918 129.917 235.89 126.967 238.994 124.079C240.391 122.775 241.818 121.473 243.259 120.192C243.009 116.141 242.744 110.591 242.744 104.159C242.744 97.1273 243.082 90.2204 243.737 83.4744C242.082 75.9734 237.067 56.6694 224.674 30.9044C215.287 11.3834 203.572 -7.96762 189.856 -26.6066C173.889 -48.2986 155.14 -69.0926 134.077 -88.4996C132.732 -88.3566 131.36 -88.2567 129.96 -88.2567C127.952 -88.2567 125.888 -88.4206 123.822 -88.7646C114.736 -90.2466 106.153 -94.2437 98.2992 -100.684C92.1582 -105.702 86.3852 -111.51 81.1312 -117.957C77.8502 -121.961 74.6512 -126.06 71.5592 -130.017C71.0812 -130.626 70.7352 -130.955 70.2532 -130.955C70.0482 -130.955 69.8192 -130.899 69.5472 -130.791C67.0912 -129.769 64.4552 -129.619 61.9032 -129.464L61.7752 -129.447C60.3292 -129.369 58.8802 -129.322 57.4682 -129.322C43.8152 -129.322 31.3392 -133.491 20.3992 -141.718C20.0312 -142.007 19.7562 -142.139 19.5682 -142.139C19.4032 -142.139 19.1822 -142.053 18.7772 -141.498C15.2212 -136.659 12.7062 -131.843 11.0732 -126.776C8.8822 -119.946 7.6252 -112.571 7.32719 -104.851C6.94119 -94.7106 5.31219 -84.6256 2.3412 -74.0256C-1.1678 -61.4986 -5.65981 -51.8746 -11.7978 -43.7567C-17.9248 -35.6297 -23.9178 -30.3467 -30.6718 -27.0917C-38.2178 -23.4697 -45.9618 -21.6346 -53.6848 -21.6346C-58.6548 -21.6346 -63.7148 -22.3996 -68.7158 -23.9056C-88.1098 -29.7286 -100.24 -42.6246 -104.763 -62.2236C-108.488 -78.3426 -105.362 -92.8837 -95.4708 -105.452Z" fill="#C33F38"/>
</g>
<mask id="mask1_372_18443" style="mask-type:luminance" maskUnits="userSpaceOnUse" x="0" y="0" width="552" height="50">
<path d="M0 0V49.671H551.362C551.362 22.238 529.123 0 501.69 0H0Z" fill="white"/>
</mask>
<g mask="url(#mask1_372_18443)">
<path d="M-43.4513 40.6466C-42.9813 40.6466 -42.5463 40.6466 -42.1313 40.6306C-41.3623 40.6306 -40.6863 40.6306 -40.0133 40.6136C-38.6603 40.5836 -37.2743 40.5756 -35.9093 40.5756H-35.9053C-26.0033 40.5756 -15.9473 41.3956 -5.17227 43.1126C1.23773 44.1426 7.85573 46.3056 16.2837 50.1456C28.3887 55.6316 39.7947 63.5396 51.1537 74.3116C59.3507 82.0846 66.4657 90.6566 72.3157 99.7886C78.2837 109.117 83.2967 119.818 87.6127 132.533C88.5507 135.312 90.3627 140.784 90.4227 141.003L90.4367 140.73L91.1427 141.066C102.31 114.809 100.259 98.1966 100.24 98.0486C99.4707 90.0566 98.0117 83.0766 95.7687 76.6686C92.3047 66.7876 88.1857 58.6926 83.1747 51.9246C79.7877 47.3426 75.8677 43.2606 71.5397 39.7956C71.1247 39.4676 70.7127 39.1156 70.3007 38.7656C69.4947 38.1106 68.6687 37.4216 67.7977 36.7896C61.9167 32.4886 55.5737 29.0386 48.3847 26.2756C36.6327 21.7406 25.7487 19.0466 15.1027 18.0476C13.2097 17.8536 11.2167 17.7676 9.17573 17.7676C5.21873 17.7676 0.876732 18.1026 -4.48427 18.8136C-9.90427 19.5466 -15.5193 21.1396 -21.6573 23.6846C-25.6243 25.3306 -29.1593 27.4226 -32.1663 29.9206C-34.0673 31.0906 -35.7443 32.5736 -37.3733 34.0256C-38.0753 34.6336 -38.7953 35.2826 -39.5313 35.8906C-40.4843 36.6876 -41.3663 37.5776 -42.3013 38.5216C-42.7423 38.9656 -43.2163 39.4436 -43.7163 39.9346L-44.4473 40.6606L-43.4513 40.6466Z" fill="#4D77B5"/>
</g>
<mask id="mask2_372_18443" style="mask-type:luminance" maskUnits="userSpaceOnUse" x="0" y="0" width="552" height="50">
<path d="M0 0V49.671H551.362C551.362 22.238 529.123 0 501.69 0H0Z" fill="white"/>
</mask>
<g mask="url(#mask2_372_18443)">
<path d="M250.804 332.428C240.758 317.426 231.077 297.1 228.789 271.334C228.458 267.627 228.293 263.88 228.293 260.187C228.285 238.574 233.735 217.827 244.494 198.547C251.598 185.839 260.578 174.506 271.978 163.859C279.111 157.193 286.782 151.121 295.195 145.485C294.974 142.362 294.717 139.099 294.445 135.744V135.666C294.047 130.615 293.635 125.401 293.268 119.82L293.253 119.484C293.018 115.917 292.664 110.516 292.664 104.178C292.664 76.3577 299.687 51.7546 313.529 31.0226C326.936 10.9316 345.027 -3.63336 367.303 -12.2664C380.526 -17.3954 394.837 -20.1814 409.877 -20.5394C400.427 -31.0224 394.109 -41.9813 389.903 -51.5273C378.415 -49.8723 367.34 -47.0004 356.75 -42.8864C328.524 -31.9354 305.55 -13.4194 288.465 12.1746C270.867 38.5106 261.946 69.4756 261.938 104.18C261.938 111.65 262.351 117.956 262.6 121.742L262.623 122.078C262.784 124.614 262.961 127.05 263.145 129.416C259.203 132.593 255.386 135.901 251.672 139.376C237.824 152.317 226.826 166.234 218.07 181.939C204.458 206.323 197.563 232.651 197.574 260.206C197.574 264.896 197.787 269.675 198.203 274.389C200.233 297.205 206.837 316.523 214.82 332.431H250.804V332.428Z" fill="#4D77B5"/>
</g>
<mask id="mask3_372_18443" style="mask-type:luminance" maskUnits="userSpaceOnUse" x="0" y="0" width="552" height="50">
<path d="M0 0V49.671H551.362C551.362 22.238 529.123 0 501.69 0H0Z" fill="white"/>
</mask>
<g mask="url(#mask3_372_18443)">
<path d="M180.857 73.6712C183.887 64.3913 183.622 56.1793 180.052 48.5373C172.006 31.3573 149.988 22.6693 146.987 21.5453C142.034 20.3523 112.478 11.8513 101.556 -21.3997C89.3112 -58.7107 70.5432 -73.6737 55.5662 -82.5337C48.1792 -86.9127 42.0062 -88.1228 37.2252 -86.1468C33.1802 -84.4688 30.4512 -80.7217 28.8232 -77.7417C29.7132 -72.4257 30.1652 -67.0088 30.1652 -61.5448C30.1652 -57.7908 29.9522 -54.0517 29.5362 -50.3587C30.1722 -50.6247 30.8192 -50.8738 31.4632 -51.0918C34.8832 -52.2558 38.3322 -52.8257 41.7852 -52.8257C45.3632 -52.8257 48.9552 -52.2087 52.5292 -50.9597C70.9042 -44.5357 78.2842 -32.2957 81.2402 -23.1637C84.4172 -13.3447 83.1782 -5.07075 83.0312 -4.14175L82.9242 -3.61172C80.4242 7.53429 82.1772 16.0343 88.2672 22.3883C93.0072 27.3293 98.7842 29.2023 99.1992 29.3523C113.382 33.3013 126.969 40.9053 139.6 51.9413C144.671 56.3753 149.587 61.3703 154.331 66.8883C156.79 69.4423 159.622 72.5473 162.895 76.3573C162.994 76.4823 163.086 76.5833 163.174 76.7013C170.925 86.9023 176.438 95.6673 180.501 104.293C190.381 125.236 197.022 145.538 200.824 166.333C201.129 168.01 201.398 169.689 201.652 171.366C205.752 164.03 210.289 157.051 215.294 150.369C214.83 146.514 214.12 141.768 213.047 136.896C209.822 122.308 205.307 115.876 202.152 114.706C178.923 106.126 178.805 79.9312 180.857 73.6712Z" fill="#4D77B5"/>
</g>
<mask id="mask4_372_18443" style="mask-type:luminance" maskUnits="userSpaceOnUse" x="0" y="0" width="552" height="50">
<path d="M0 0V49.671H551.362C551.362 22.238 529.123 0 501.69 0H0Z" fill="white"/>
</mask>
<g mask="url(#mask4_372_18443)">
<path d="M22.8766 -0.386166C28.1416 0.370834 33.3676 1.66581 37.7916 2.84381C46.6686 5.19482 53.7096 7.60682 59.9716 10.4478C61.5376 11.1658 63.2256 11.9538 64.9356 12.8038C64.0716 7.02084 64.1956 0.306789 65.8816 -7.44421C65.9796 -8.41121 66.3146 -12.8442 64.5416 -17.8082C61.9866 -25.0052 56.1066 -30.2582 47.0796 -33.4052C41.7656 -35.2612 34.1766 -35.6612 22.1746 -22.8212C18.8286 -15.1482 14.4566 -7.95121 9.14258 -1.41821C13.6836 -1.40121 18.2986 -1.05017 22.8766 -0.386166Z" fill="#4D77B5"/>
</g>
<mask id="mask5_372_18443" style="mask-type:luminance" maskUnits="userSpaceOnUse" x="0" y="0" width="552" height="50">
<path d="M0 0V49.671H551.362C551.362 22.238 529.123 0 501.69 0H0Z" fill="white"/>
</mask>
<g mask="url(#mask5_372_18443)">
<path d="M589.254 -49.9362C578.928 -53.2852 566.331 -55.0332 550.137 -55.0332C527.059 -55.0332 504.974 -46.6572 486.264 -30.7812C472.365 -18.9782 462.879 -5.67218 455.944 4.03882C455.944 4.03882 455.208 5.09384 454.913 5.49884C443.353 2.60284 428.983 -0.199158 413.333 -0.199158C399.279 -0.199158 386.011 2.1748 373.892 6.8728C355.352 14.0688 340.305 26.1598 329.193 42.8108C317.698 60.0298 311.866 80.6759 311.859 104.178C311.859 109.797 312.175 114.581 312.395 118.072L312.425 118.431C312.777 123.87 313.19 129.037 313.587 134.041C314.124 140.785 314.624 147.107 314.911 153.017C314.969 154.243 315.035 155.469 315.109 156.694C303.622 163.406 293.554 170.838 284.655 179.157C274.793 188.352 267.056 198.102 261.019 208.929C252.039 225.023 247.487 242.267 247.495 260.18C247.495 263.24 247.634 266.347 247.906 269.422C250.473 298.271 264.107 319.04 275.323 332.428H326.884C322.265 328.26 317.705 323.89 313.241 319.151C312.793 318.683 312.359 318.223 311.889 317.731L311.852 317.675C302.511 307.817 286.861 291.278 284.619 266.065C283.427 252.586 286.295 239.511 293.171 227.211C297.386 219.67 302.894 212.769 310.049 206.088C323.669 193.364 339.209 184.747 354.035 178.176C352.947 169.48 352.189 160.551 351.719 151.145C351.402 144.658 350.881 138.07 350.329 131.045C349.947 126.159 349.556 121.115 349.211 115.981L349.174 115.575C348.431 104.086 347.027 82.7288 359.831 63.5518C366.912 52.9498 376.577 45.2158 388.563 40.5788C396.948 37.3168 406.317 35.6608 416.414 35.6608C430.813 35.6608 444.596 38.8608 454.98 41.6478C460.334 43.0918 465.746 44.7938 471.41 46.8618C475.425 40.6738 479.734 34.3888 484.397 27.8868C484.889 27.1918 485.376 26.5128 485.875 25.8258L485.942 25.7168C492.127 17.0358 499.834 6.24183 510.446 -2.77417C523.088 -13.5002 537.877 -19.1812 553.196 -19.1812C565.764 -19.1812 578.061 -15.3702 589.254 -8.3302V-49.9362Z" fill="#92BCE4"/>
</g>
<mask id="mask6_372_18443" style="mask-type:luminance" maskUnits="userSpaceOnUse" x="0" y="0" width="552" height="50">
<path d="M0 0V49.671H551.362C551.362 22.238 529.123 0 501.69 0H0Z" fill="white"/>
</mask>
<g mask="url(#mask6_372_18443)">
<path d="M589.254 16.7681C578.539 6.75413 565.963 1.20508 553.196 1.20508C542.282 1.20508 531.64 5.33412 522.434 13.1641C513.696 20.5701 507.085 29.8361 501.253 38.0011C500.716 38.7491 500.202 39.4911 499.671 40.2171C491.979 50.9351 485.368 61.0041 479.396 70.9881C479.271 71.2061 479.132 71.4321 479.013 71.6521C468.35 67.0701 459.12 63.7921 450.273 61.4021C440.963 58.9041 428.696 56.0321 416.414 56.0321C403.618 56.0321 386.152 59.3811 375.495 75.3281C366.662 88.5661 367.67 103.966 368.339 114.16L368.361 114.566C368.692 119.545 369.09 124.518 369.465 129.335C370.032 136.493 370.553 143.259 370.898 150.074C371.502 162.204 372.619 173.444 374.326 184.433C374.672 186.713 375.032 189.008 375.4 191.272C356.742 198.429 337.989 207.14 322.729 221.377C317.117 226.607 312.851 231.922 309.689 237.589C304.931 246.113 302.931 255.051 303.725 264.144C305.314 282.035 317.404 294.789 325.398 303.235C325.89 303.75 326.361 304.265 326.832 304.764C336.598 315.146 347.129 324.06 357.691 332.426H386.99C386.497 332.044 385.953 331.709 385.46 331.359C382.283 328.969 379.04 326.674 375.863 324.279C365.722 316.63 356.227 308.09 346.725 299.55C339.548 293.103 333.075 286 327.045 278.366C325.022 275.799 323.214 273.082 321.868 270.053C319.183 263.989 318.934 257.885 321.404 251.663C323.14 247.293 325.685 243.538 328.817 240.198C333.944 234.717 339.761 230.181 346.049 226.358C355.705 220.464 365.868 215.711 376.275 211.519C381.673 209.333 387.123 207.32 392.594 205.391C394.02 204.876 394.013 204.845 393.785 203.448C392.726 196.891 391.653 190.319 390.6 183.748C389.49 176.785 388.498 169.806 387.865 162.75C387.13 154.531 386.997 146.25 386.343 138.007C385.769 130.584 385.129 123.137 384.614 115.698C384.217 109.774 383.79 103.849 384.438 97.9181C385.35 89.5261 389.196 83.4611 396.58 80.0501C398.256 79.2851 399.969 78.6771 401.757 78.2541C407.707 76.8661 413.737 76.7641 419.761 77.2161C430.909 78.0371 441.757 80.5341 452.355 84.1791C462.702 87.7401 472.726 92.1411 482.632 96.8871C483.919 97.5031 483.934 97.5111 484.603 96.2231C490.398 84.8281 497.193 74.0791 504.268 63.5571C511.255 53.1921 518.513 43.0601 526.677 33.6941C530.096 29.7841 533.994 26.5751 538.517 24.2631C545.526 20.6981 552.718 20.0881 560.087 22.8741C563.985 24.3501 567.485 26.5111 570.721 29.2201C575.163 32.9131 578.826 37.3631 582.113 42.2011C584.635 45.9311 586.982 49.7571 589.254 53.6281V16.7681Z" fill="#4D77B5"/>
</g>
<mask id="mask7_372_18443" style="mask-type:luminance" maskUnits="userSpaceOnUse" x="0" y="0" width="552" height="50">
<path d="M0 0V49.671H551.362C551.362 22.238 529.123 0 501.69 0H0Z" fill="white"/>
</mask>
<g mask="url(#mask7_372_18443)">
<path d="M589.254 93.1153C584.526 83.5143 579.789 73.9222 574.347 64.7262C571.067 59.1922 567.728 53.7123 563.669 48.7793C561.22 45.7993 558.432 43.2372 554.961 41.6142C551.968 40.2172 549.114 40.3812 546.284 42.0122C544.268 43.1592 542.51 44.6183 540.944 46.3993C534.568 53.7673 528.677 61.5583 522.978 69.5353C514.858 80.8993 507.203 92.6152 499.988 104.644C499.591 105.307 498.848 105.877 499.65 106.892C500.628 108.141 500.554 108.218 502.062 107.563C512.527 103.004 523.257 99.3443 534.34 96.9323C545.643 94.4653 557.064 93.3963 568.589 94.3803C575.59 94.9733 582.473 96.2922 589.254 98.1812V93.1153Z" fill="#92BCE4"/>
</g>
<mask id="mask8_372_18443" style="mask-type:luminance" maskUnits="userSpaceOnUse" x="0" y="0" width="552" height="50">
<path d="M0 0V49.671H551.362C551.362 22.238 529.123 0 501.69 0H0Z" fill="white"/>
</mask>
<g mask="url(#mask8_372_18443)">
<path d="M166.057 -138.615C165.862 -138.615 165.66 -138.631 165.458 -138.654C165.141 -138.669 164.814 -138.701 164.502 -138.701C164.064 -138.701 163.692 -138.654 163.366 -138.544C163.413 -137.976 163.461 -137.422 163.512 -136.859C163.641 -135.477 163.774 -134.049 163.84 -132.628C164.252 -123.245 162.751 -115.043 159.233 -107.612C157.202 -103.294 154.625 -99.6572 151.587 -96.7462C171.213 -78.0362 188.796 -58.1242 203.986 -37.4322C218.427 -17.7382 230.752 2.71979 240.611 23.3888C244.744 32.0458 248.098 40.0138 250.811 47.1178C255.819 30.4298 263.16 14.8178 272.8 0.379822C275.595 -3.80618 278.522 -7.80217 281.581 -11.6492C280.383 -19.1032 277.449 -30.1572 271.345 -43.0672C264.689 -57.1712 255.348 -71.3782 243.597 -85.3262C228.822 -102.865 210.183 -120.022 188.186 -136.297C180.905 -137.468 173.518 -138.232 166.057 -138.615Z" fill="#4D77B5"/>
</g>
<mask id="mask9_372_18443" style="mask-type:luminance" maskUnits="userSpaceOnUse" x="0" y="0" width="552" height="50">
<path d="M0 0V49.671H551.362C551.362 22.238 529.123 0 501.69 0H0Z" fill="white"/>
</mask>
<g mask="url(#mask9_372_18443)">
<path d="M561.801 -768.512H-133.02C-160.612 -768.512 -183.058 -744.682 -183.058 -715.395V303.295C-183.058 332.574 -160.612 356.398 -133.02 356.398H561.801C589.394 356.398 611.838 332.575 611.838 303.295V-715.395C611.838 -744.682 589.395 -768.512 561.801 -768.512ZM297.041 -744.533L252.158 -696.896C251.753 -696.482 251.32 -696.271 250.746 -696.271C250.165 -696.271 249.732 -696.482 249.319 -696.896L204.44 -744.533H297.041ZM159.292 -744.533H177.287L235.742 -682.502C239.751 -678.256 245.076 -675.907 250.746 -675.907C256.401 -675.907 261.725 -678.256 265.734 -682.502L324.192 -744.533H370.076L261.343 -629.143C259.085 -626.739 256.203 -625.459 253.003 -625.459C249.804 -625.459 246.908 -626.739 244.656 -629.143L158.648 -720.421C159.144 -727.369 159.399 -734.332 159.399 -741.278L159.292 -744.533ZM155.698 -694.726L231.075 -614.726C236.926 -608.513 244.721 -605.086 253.002 -605.086C261.283 -605.086 269.072 -608.513 274.933 -614.726L397.227 -744.533H450.148L271.667 -555.084C262.762 -545.639 248.319 -545.639 239.412 -555.084L146.395 -653.817C150.403 -667.243 153.522 -680.941 155.698 -694.726ZM243.258 120.193C241.817 121.473 240.39 122.776 238.993 124.08C235.889 126.969 232.917 129.919 230.054 132.94L230.006 132.659C225.652 112.981 218.202 101.054 207.873 97.2453C203.314 95.5583 200.305 92.4993 198.67 87.8713C197.308 84.0303 197.36 80.3453 197.471 79.2133C202.736 62.6663 200.706 46.7583 191.586 33.1533C185.817 24.5273 177.393 16.9883 166.553 10.7053C163.254 8.79224 159.834 7.07526 156.415 5.59229C153.19 4.19629 151.708 3.68829 150.741 3.50031C149.377 3.15631 143.681 1.54132 137.291 -2.5647C127.951 -8.5827 121.464 -16.9657 118.004 -27.4957C103.66 -71.1837 80.3434 -89.0427 64.0424 -98.6747C56.2844 -103.274 48.9374 -105.575 42.0684 -105.575C38.1084 -105.575 34.3174 -104.802 30.7024 -103.281C19.5154 -98.5507 13.8634 -88.0427 11.5774 -82.5097C11.5634 -82.4927 11.5544 -82.4617 11.5394 -82.4307C11.0624 -81.4478 10.7174 -80.4557 10.4634 -79.4957C10.4084 -79.3317 10.3644 -79.1907 10.3424 -79.0897H10.3594C9.14337 -73.9527 10.5514 -69.4647 10.5514 -69.4647H10.5594C10.8274 -66.8347 10.9664 -64.1897 10.9664 -61.5427C10.9664 -21.9688 -19.3766 10.2293 -56.6666 10.2293C-93.9606 10.2293 -124.301 -21.9688 -124.301 -61.5427C-124.301 -76.3577 -120.083 -90.5787 -112.108 -102.67C-106.154 -111.686 -98.4396 -119.047 -89.4996 -124.308C-90.0146 -120.742 -90.6766 -117.205 -91.4556 -113.723C-92.1506 -110.64 -93.3896 -108.088 -95.4716 -105.451C-105.363 -92.8827 -108.489 -78.3417 -104.764 -62.2227C-100.241 -42.6217 -88.1106 -29.7267 -68.7166 -23.9047C-63.7156 -22.3987 -58.6556 -21.6337 -53.6846 -21.6337C-45.9626 -21.6337 -38.2186 -23.4677 -30.6726 -27.0897C-23.9186 -30.3447 -17.9246 -35.6287 -11.7986 -43.7547C-5.66061 -51.8727 -1.16862 -61.4967 2.34038 -74.0257C5.31137 -84.6257 6.94038 -94.7108 7.32738 -104.85C7.62437 -112.57 8.88239 -119.946 11.0734 -126.776C12.7054 -131.841 15.2214 -136.658 18.7774 -141.497C19.1814 -142.052 19.4024 -142.138 19.5684 -142.138C19.7554 -142.138 20.0314 -142.005 20.3984 -141.716C31.3384 -133.489 43.8144 -129.321 57.4684 -129.321C58.8794 -129.321 60.3284 -129.368 61.7744 -129.445L61.9024 -129.462C64.4544 -129.617 67.0904 -129.766 69.5474 -130.788C69.8194 -130.897 70.0474 -130.953 70.2534 -130.953C70.7354 -130.953 71.0804 -130.625 71.5584 -130.015C74.6504 -126.058 77.8494 -121.96 81.1304 -117.956C86.3844 -111.509 92.1584 -105.701 98.2994 -100.683C106.152 -94.2427 114.736 -90.2457 123.821 -88.7627C125.888 -88.4197 127.951 -88.2557 129.959 -88.2557C131.359 -88.2557 132.731 -88.3577 134.077 -88.4977C155.139 -69.0927 173.889 -48.2987 189.855 -26.6067C203.571 -7.96667 215.286 11.3823 224.674 30.9053C237.066 56.6713 242.081 75.9743 243.737 83.4743C243.081 90.2193 242.743 97.1273 242.743 104.16C242.743 110.591 243.008 116.141 243.258 120.193ZM10.3964 166.402C5.68938 160.829 0.458389 156.021 -5.15462 152.102C-14.6596 145.466 -25.6826 140.549 -38.8656 137.069C-44.9876 135.462 -50.6106 134.673 -56.0596 134.673C-58.2476 134.673 -60.4356 134.797 -62.5536 135.063C-63.8406 135.211 -65.1176 135.579 -66.3446 135.915C-66.9046 136.079 -67.4636 136.227 -68.0216 136.367L-68.3046 136.445L-68.4476 136.164C-68.8336 135.439 -68.9076 134.736 -68.9886 134.057C-68.9996 133.916 -69.0186 133.792 -69.0246 133.652C-69.6026 129.389 -69.5516 125.199 -69.4226 121.288C-69.2686 116.706 -68.6836 112.1 -68.1106 107.652L-67.8816 105.778C-67.8716 105.722 -67.8676 105.661 -67.8636 105.598C-67.8386 105.247 -67.7716 104.427 -66.9476 104.427C-66.1426 104.427 -65.3886 104.28 -64.5806 104.108C-63.7776 103.944 -62.9516 103.771 -62.1056 103.771C-61.7416 103.771 -61.3876 103.819 -61.0646 103.874C-60.7226 103.484 -60.2776 103.46 -59.9246 103.436H-59.6786C-58.9426 103.343 -58.1556 103.321 -57.2586 103.321C-56.3866 103.321 -55.4936 103.343 -54.6336 103.397C-53.9896 103.414 -53.3536 103.436 -52.7096 103.454C-41.9976 103.647 -32.5746 105.459 -23.8916 108.933C-17.0896 111.651 -10.3616 115.06 -3.88562 119.074C-0.255615 121.312 3.28537 123.849 6.71938 126.301C7.63538 126.957 8.55138 127.613 9.46938 128.269C10.8374 129.237 12.2684 130.408 13.8424 131.86C17.9124 135.636 21.7264 139.837 25.4104 143.88L25.6094 144.107C29.8084 148.705 33.2174 153.248 36.0334 157.978C39.8024 164.292 42.2404 171.536 44.2044 177.351C44.6164 178.592 44.9654 179.88 45.2854 181.128C45.8634 183.267 46.4554 185.5 47.4554 187.514C48.0134 188.637 47.2124 189.153 46.7304 189.465L46.6194 189.543C41.5674 192.898 36.8834 195.756 32.3234 198.315C31.7684 198.613 31.2124 198.902 30.6614 199.198C30.1254 199.487 29.5844 199.767 29.0544 200.064C28.7824 200.212 28.5544 200.283 28.3414 200.283C27.8554 200.283 27.5254 199.932 27.3494 199.207C27.0034 197.769 26.6094 196.356 26.3044 195.264C23.8594 186.561 19.8574 178.647 14.4344 171.793C14.0704 171.325 13.6764 170.872 13.3014 170.412C12.2644 169.18 11.1884 167.916 10.3964 166.402ZM11.5104 207.716L11.1984 207.897C7.79738 209.731 -2.00961 213.314 -7.21262 214.61L-7.58762 214.711C-11.1036 215.577 -14.7286 216.483 -18.4276 216.741C-18.4616 216.756 -18.4976 216.771 -18.5416 216.795C-18.6786 216.842 -18.8396 216.92 -19.0166 216.958C-20.6926 217.256 -22.4036 217.42 -24.0756 217.42C-29.4336 217.42 -34.8026 215.804 -40.0206 212.659C-44.6456 209.856 -48.6656 205.586 -52.6736 199.185C-59.3916 188.476 -64.0466 176.018 -66.9066 161.102C-67.3266 158.941 -67.3116 156.801 -67.2976 154.538C-67.2936 154.108 -67.2896 153.672 -67.2896 153.225V152.85L-66.9376 152.82C-64.7306 152.649 -62.8816 152.54 -61.0066 152.54C-59.1256 152.54 -57.4686 152.664 -55.9246 152.93C-49.0736 153.61 -41.9436 155.436 -34.1476 158.489C-29.0076 160.502 -23.0686 162.945 -17.6376 166.497C-9.29062 171.93 -2.10562 179.438 4.33638 189.476C6.81938 193.364 8.22638 197.765 9.58438 202.019C10.1474 203.784 10.7354 205.618 11.3814 207.366L11.5104 207.716ZM-88.9186 140.697C-88.9146 140.861 -88.8966 141.033 -88.8556 141.228C-88.7756 141.728 -88.6686 142.36 -89.0556 142.938L-89.1866 143.14L-89.4226 143.109C-90.0656 142.992 -90.2826 142.563 -90.4256 142.274C-90.4486 142.243 -90.4776 142.204 -90.4996 142.149C-92.6396 138.458 -94.3616 134.999 -95.7466 131.587C-98.8366 123.985 -100.789 115.789 -101.55 107.265C-102.657 94.8863 -101.381 82.6313 -97.7656 70.8373C-95.9866 65.0613 -93.6766 59.0203 -90.6976 52.4393C-89.3386 49.4043 -87.9996 46.7103 -86.6056 44.2053C-85.5396 42.2682 -84.3626 40.3572 -83.2266 38.4993C-82.6386 37.5392 -82.0426 36.5633 -81.4686 35.6033C-80.8836 34.6263 -80.3216 33.6593 -79.8256 32.6603C-78.9466 30.8963 -78.1116 29.3663 -77.2696 28.0083C-71.7356 29.4463 -66.0426 30.2803 -60.2516 30.5453C-62.0096 32.6603 -63.6976 34.8623 -65.2976 37.1643C-68.6386 41.9573 -71.5156 47.1953 -73.8646 52.7443C-77.3726 61.0652 -80.2996 70.1043 -82.8146 80.4073C-85.6316 91.9993 -87.5286 104.729 -88.6096 119.365C-89.0986 125.985 -89.2016 132.969 -88.9186 140.697ZM44.3224 137.858C43.9654 137.397 43.5864 136.966 43.2194 136.53C42.3814 135.554 41.5124 134.547 40.8584 133.354C40.7624 133.251 40.6564 133.15 40.5674 133.041C40.3284 132.807 40.0964 132.573 39.8694 132.315C34.4414 126.133 30.0514 121.575 25.6204 117.554C19.9684 112.411 13.6294 108.086 8.17238 104.542C-1.65662 98.1333 -10.7496 93.5293 -19.6346 90.4383C-29.0216 87.1743 -38.3516 85.5053 -47.3596 85.5053C-49.8416 85.5053 -52.3526 85.6443 -54.8166 85.8793C-57.5236 86.1523 -60.4026 86.6443 -64.1456 87.4643L-64.7446 87.5963L-64.5906 86.9643C-64.4286 86.3173 -64.2786 85.6753 -64.1306 85.0513C-63.8226 83.7803 -63.5396 82.5633 -63.2036 81.3533C-62.4246 78.5573 -61.6416 75.7553 -60.8546 72.9613C-59.7446 68.9883 -58.5866 64.8823 -57.4796 60.8313C-57.1886 59.7683 -56.6846 59.3403 -55.6116 59.2233C-53.5416 58.9903 -51.5076 58.9583 -49.9596 58.9583C-49.0986 58.9583 -48.2356 58.9653 -47.3706 58.9893H-47.2536C-46.7746 58.9023 -46.2646 58.8563 -45.6536 58.8563C-45.2196 58.8563 -44.7896 58.8713 -44.3666 58.9023C-44.0986 58.9193 -43.8376 58.9193 -43.5726 58.9333C-36.8956 59.1063 -30.1256 59.6833 -23.5836 60.2383C-21.7006 60.4093 -19.8146 60.5653 -17.9316 60.7143C-3.74461 61.8693 9.76839 66.8583 23.3844 75.9743C29.3004 79.9313 35.1884 84.8962 41.9134 91.6172C51.7384 101.389 59.6304 112.887 65.3704 125.766C68.8934 133.664 72.0064 142.508 75.1544 153.57C75.8424 156.021 76.5554 158.174 78.2214 159.83C79.2324 160.837 78.5274 161.68 78.1034 162.179C74.3304 166.653 69.7344 171.803 64.1754 176.192C64.1234 176.238 64.0794 176.3 64.0314 176.347C63.8544 176.535 63.5944 176.816 63.1824 176.816C63.0244 176.816 62.8544 176.768 62.6854 176.692L62.5314 176.613L60.3764 169.517C56.6044 157.136 51.3534 146.778 44.3224 137.858ZM72.3164 99.7892C66.4654 90.6562 59.3504 82.0853 51.1544 74.3123C39.7964 63.5403 28.3884 55.6313 16.2834 50.1453C7.85539 46.3043 1.23738 44.1413 -5.17162 43.1123C-15.9456 41.3953 -26.0036 40.5763 -35.9046 40.5763H-35.9086C-37.2736 40.5763 -38.6596 40.5833 -40.0136 40.6143C-40.6856 40.6303 -41.3626 40.6303 -42.1306 40.6303C-42.5466 40.6463 -42.9806 40.6463 -43.4506 40.6463L-44.4476 40.6623L-43.7166 39.9373C-43.2166 39.4453 -42.7416 38.9673 -42.3006 38.5233C-41.3656 37.5793 -40.4836 36.6893 -39.5316 35.8923C-38.7956 35.2843 -38.0746 34.6363 -37.3726 34.0273C-35.7436 32.5753 -34.0666 31.0913 -32.1666 29.9223C-29.1586 27.4253 -25.6246 25.3323 -21.6566 23.6853C-15.5196 21.1403 -9.90462 19.5483 -4.48462 18.8153C0.876373 18.1053 5.21938 17.7683 9.17638 17.7683C11.2174 17.7683 13.2104 17.8553 15.1034 18.0493C25.7494 19.0493 36.6334 21.7413 48.3854 26.2773C55.5744 29.0413 61.9174 32.4903 67.7974 36.7913C68.6684 37.4243 69.4954 38.1113 70.3014 38.7673C70.7134 39.1183 71.1254 39.4693 71.5394 39.7973C75.8684 43.2623 79.7874 47.3453 83.1754 51.9273C88.1874 58.6953 92.3054 66.7892 95.7684 76.6713C98.0124 83.0793 99.4714 90.0573 100.24 98.0502C100.258 98.1982 102.31 114.809 91.1434 141.067L90.4374 140.731L90.4224 141.004C90.3634 140.785 88.5504 135.315 87.6134 132.535C83.2964 119.818 78.2844 109.116 72.3164 99.7892ZM64.9374 12.8023C63.2274 11.9523 61.5394 11.1643 59.9734 10.4463C53.7104 7.60626 46.6694 5.19427 37.7924 2.84326C33.3694 1.66528 28.1434 0.369263 22.8774 -0.386719C18.3004 -1.05072 13.6854 -1.40271 9.14438 -1.41669C14.4574 -7.94971 18.8294 -15.1458 22.1754 -22.8207C34.1774 -35.6608 41.7674 -35.2607 47.0804 -33.4047C56.1084 -30.2587 61.9884 -25.0057 64.5434 -17.8077C66.3164 -12.8427 65.9814 -8.41071 65.8824 -7.44373C64.1974 0.307251 64.0714 7.01929 64.9374 12.8023ZM99.2004 29.3513C98.7844 29.2043 93.0074 27.3303 88.2674 22.3893C82.1784 16.0353 80.4234 7.53528 82.9244 -3.61169L83.0314 -4.14172C83.1784 -5.07172 84.4174 -13.3438 81.2404 -23.1647C78.2844 -32.2968 70.9044 -44.5357 52.5294 -50.9597C48.9554 -52.2077 45.3634 -52.8247 41.7854 -52.8247C38.3324 -52.8247 34.8834 -52.2547 31.4634 -51.0927C30.8204 -50.8737 30.1734 -50.6237 29.5364 -50.3597C29.9524 -54.0507 30.1654 -57.7907 30.1654 -61.5447C30.1654 -67.0087 29.7124 -72.4257 28.8234 -77.7417C30.4524 -80.7217 33.1804 -84.4697 37.2254 -86.1467C42.0054 -88.1227 48.1794 -86.9127 55.5664 -82.5337C70.5434 -73.6747 89.3124 -58.7117 101.556 -21.4007C112.477 11.8513 142.035 20.3513 146.988 21.5463C149.987 22.6693 172.006 31.3583 180.052 48.5383C183.623 56.1783 183.888 64.3912 180.857 73.6713C178.805 79.9313 178.923 106.127 202.152 114.705C205.306 115.876 209.822 122.307 213.047 136.896C214.12 141.766 214.83 146.512 215.294 150.369C210.289 157.05 205.751 164.028 201.652 171.366C201.398 169.687 201.129 168.009 200.824 166.331C197.022 145.537 190.381 125.235 180.501 104.292C176.437 95.6673 170.926 86.9023 163.174 76.6993C163.086 76.5823 162.994 76.4813 162.895 76.3563C159.621 72.5463 156.79 69.4402 154.33 66.8873C149.587 61.3693 144.671 56.3723 139.6 51.9403C126.969 40.9033 113.382 33.3003 99.2004 29.3513ZM-60.8696 -123.349C-61.8286 -123.497 -62.7856 -123.568 -63.7056 -123.568C-65.0326 -123.568 -66.3226 -123.419 -67.5476 -123.115C-68.9186 -122.787 -70.2646 -122.389 -71.6766 -121.999C-72.1106 -121.875 -72.5406 -121.758 -72.9826 -121.625C-72.9196 -122.553 -72.7176 -123.419 -72.5256 -124.278C-72.4006 -124.808 -72.2756 -125.354 -72.1796 -125.909C-71.5666 -129.68 -71.4266 -133.519 -71.2836 -137.252C-71.2276 -138.867 -71.1586 -140.545 -71.0666 -142.177C-70.5806 -150.037 -71.4076 -158.077 -73.5156 -166.071C-77.3136 -180.457 -83.9216 -194.092 -93.1696 -206.62C-94.9636 -209.048 -96.8506 -211.468 -98.6736 -213.809C-100.514 -216.173 -102.418 -218.618 -104.219 -221.06C-115.475 -236.321 -120.263 -253.227 -118.465 -271.351C-117.586 -280.164 -114.78 -288.15 -110.114 -295.074C-104.72 -303.097 -98.3986 -307.718 -90.7936 -309.185C-88.6726 -309.599 -86.5436 -309.809 -84.4436 -309.809C-78.6706 -309.809 -72.9636 -308.233 -67.4776 -305.134C-63.3926 -302.831 -59.2336 -299.905 -54.7436 -296.22C-52.0006 -293.956 -49.2316 -291.616 -46.5696 -289.351C-43.9296 -287.133 -41.2086 -284.817 -38.5016 -282.591C-30.1726 -275.722 -22.0796 -271.195 -13.7576 -268.76C-9.69861 -267.557 -5.91461 -266.982 -2.19762 -266.982C1.05339 -266.982 4.26237 -267.45 7.33438 -268.378C13.2544 -270.165 18.4064 -273.662 23.0864 -279.11C25.1974 -281.56 26.0394 -284.307 25.5874 -287.283C24.9064 -291.747 21.3434 -294.971 17.0964 -294.971C15.8134 -294.971 14.5454 -294.674 13.3384 -294.096C11.7274 -293.317 10.4664 -292.083 9.24638 -290.881L9.16537 -290.787C5.74538 -287.431 2.10838 -285.807 -1.95862 -285.807C-2.35162 -285.807 -2.74863 -285.824 -3.14662 -285.854C-5.41061 -286.034 -7.63261 -286.463 -9.75362 -287.119C-14.9486 -288.775 -20.0386 -291.568 -25.7686 -295.947C-29.2026 -298.578 -32.5336 -301.466 -35.7616 -304.26C-39.9026 -307.844 -44.1726 -311.551 -48.7126 -314.743C-49.2496 -315.126 -49.3486 -315.493 -49.1096 -316.265C-46.9626 -323.462 -45.4886 -330.744 -44.1606 -337.589C-43.9656 -338.588 -43.7706 -339.595 -43.5756 -340.594C-42.2266 -347.488 -40.8256 -354.621 -40.0566 -361.763C-39.7966 -364.238 -39.5016 -366.743 -39.2186 -369.17C-38.4766 -375.572 -37.7186 -382.175 -37.3106 -388.733C-36.9316 -394.797 -36.8026 -399.824 -36.9126 -404.531C-37.1376 -413.764 -38.0566 -422.952 -38.9866 -431.585C-40.0136 -441.108 -41.2226 -451.318 -43.1646 -461.497C-43.4686 -463.104 -43.7856 -464.712 -44.0986 -466.32C-21.5176 -469.075 0.729385 -476.576 22.2634 -488.691C27.1344 -491.439 31.9224 -494.389 36.6294 -497.543C40.4754 -483.711 43.7114 -469.942 46.2564 -456.625C48.1794 -446.532 49.9884 -436.596 50.9554 -426.371C51.4294 -421.391 51.6764 -416.302 51.9154 -411.391C51.9624 -410.456 52.0044 -409.527 52.0544 -408.606C52.5364 -399.115 52.1064 -389.849 51.6284 -382.051C51.1214 -373.761 49.8714 -365.028 47.9294 -356.105C47.2784 -353.093 46.6384 -350.033 46.0244 -347.068C44.2044 -338.301 42.3244 -329.239 39.7334 -320.529C39.4354 -319.53 39.1784 -318.389 38.9384 -316.984C38.3544 -313.504 39.7444 -310.444 42.6854 -308.764C42.8694 -308.663 43.0754 -308.562 43.2734 -308.468C43.6604 -308.28 44.0324 -308.101 44.2894 -307.836C46.9334 -305.127 50.2424 -304.432 53.4304 -304.104C61.3174 -303.292 68.8704 -301.03 75.9014 -297.4C89.5504 -290.336 98.3164 -278.893 101.95 -263.376C103.873 -255.157 104.516 -246.679 104.862 -240.202C105.41 -230.007 106.847 -221.272 109.256 -213.459C112.286 -203.646 117.03 -193.977 123.755 -183.908C127.587 -178.178 131.348 -171.918 135.25 -164.767C138.761 -158.328 141.427 -151.663 143.197 -144.95C144.751 -139.033 146.336 -132.094 145.388 -125.03C144.704 -119.902 143.14 -115.788 140.593 -112.462C138.761 -110.075 136.89 -108.732 134.68 -108.263H134.636L134.592 -108.241C133.102 -107.514 131.418 -107.157 129.315 -107.157C128.797 -107.157 128.252 -107.202 127.635 -107.234C122.615 -107.553 117.721 -109.248 112.687 -112.393C107.156 -115.859 101.887 -120.581 96.1144 -127.271C86.1674 -138.799 76.6504 -151.148 67.8154 -163.988C66.8404 -165.416 65.8694 -166.838 64.8994 -168.272C61.0974 -173.877 57.1734 -179.676 52.6404 -184.844C52.0804 -185.491 51.9624 -186.007 52.1984 -186.772C52.6504 -188.231 53.0514 -189.753 53.4414 -191.221L53.5114 -191.471C55.2764 -198.153 55.9454 -205.107 56.5894 -211.835L56.6404 -212.405C56.7144 -213.108 56.7874 -213.795 56.8574 -214.481C57.0304 -215.996 57.1954 -217.541 57.3064 -219.079C57.6184 -223.27 55.6184 -227.112 52.2324 -228.836C51.0734 -229.437 49.8494 -229.734 48.5724 -229.734C46.3594 -229.734 44.2154 -228.812 42.5614 -227.134C40.8774 -225.424 39.9354 -223.222 39.6004 -220.21C39.4384 -218.695 39.2764 -217.181 39.1214 -215.675C38.6764 -211.523 38.2134 -207.237 37.6764 -203.045C36.3594 -192.828 32.6424 -184.414 26.3104 -177.295C23.4794 -174.118 20.5224 -170.965 17.6624 -167.912C15.3374 -165.454 12.9404 -162.902 10.6204 -160.349C2.19138 -151.053 -3.38261 -141.656 -6.42361 -131.578C-9.01961 -123 -10.5226 -114.186 -10.9016 -105.391C-11.3326 -95.1027 -13.3076 -84.8377 -16.9366 -74.0277C-19.7096 -65.7547 -23.4256 -58.9008 -28.3066 -53.0217C-35.1306 -44.8187 -43.6606 -40.8307 -54.3986 -40.8307C-55.2266 -40.8307 -56.0716 -40.8617 -56.9216 -40.9167C-62.5396 -41.1427 -68.2176 -42.9467 -74.2846 -46.4277C-81.8306 -50.7517 -86.6036 -57.9257 -88.4676 -67.7767C-90.8436 -80.3037 -87.4296 -90.5127 -78.3226 -98.0927C-74.1416 -101.636 -68.4096 -105.796 -61.1716 -106.679C-60.3956 -106.773 -59.5726 -106.985 -58.7226 -107.303C-55.5346 -108.505 -53.5236 -111.635 -53.6036 -115.257C-53.7026 -119.462 -56.6146 -122.717 -60.8696 -123.349ZM-90.3966 -426.901C-91.3416 -437.079 -92.3846 -446.15 -93.5986 -454.587C-93.7946 -455.984 -93.9966 -457.366 -94.1906 -458.74C-94.6286 -461.854 -95.0806 -465.086 -95.5666 -468.239C-85.1056 -466.147 -74.5616 -465.086 -63.9796 -465.086C-63.3316 -465.086 -62.6856 -465.102 -62.0346 -465.102L-62.0186 -465.023C-59.7576 -453.588 -58.1366 -443.152 -57.0586 -433.137C-56.9236 -431.888 -56.7906 -430.632 -56.6506 -429.4C-55.9856 -423.319 -55.2906 -417.028 -54.9626 -410.822C-54.5626 -403.235 -54.6546 -395.272 -55.2386 -387.132C-55.7466 -380.115 -56.5186 -373.012 -57.2686 -366.135L-57.5046 -364.035C-58.6446 -353.606 -60.7546 -343.304 -62.8176 -333.649C-63.2476 -330.439 -63.9756 -327.27 -64.7036 -324.227C-64.9646 -324.329 -65.2146 -324.422 -65.4646 -324.507C-66.2226 -324.796 -66.9396 -325.07 -67.6706 -325.303C-73.5036 -327.177 -79.1766 -328.128 -84.5306 -328.128C-91.0176 -328.128 -97.3276 -326.747 -103.296 -323.977C-104.38 -323.477 -105.105 -323.15 -105.554 -323.15C-106.087 -323.15 -106.433 -323.633 -107.432 -325.195L-107.558 -325.383C-108.102 -326.218 -108.106 -326.771 -107.58 -327.701C-105.116 -332.055 -103.093 -337.013 -101.394 -342.875C-100.498 -345.98 -99.6546 -349.166 -98.8386 -352.226C-98.4896 -353.561 -98.1366 -354.919 -97.7726 -356.253L-96.4996 -361.499C-95.4366 -365.917 -94.3706 -370.335 -93.3046 -374.768C-91.0576 -384.096 -89.7716 -392.871 -89.3706 -401.581C-88.9696 -410.313 -89.6576 -418.877 -90.3966 -426.901ZM220.475 -204.161C221.633 -203.443 222.909 -202.973 224.27 -202.764C225.652 -202.57 227.02 -202.381 228.395 -202.186C230.906 -201.835 233.5 -201.468 236.037 -201.023C244.559 -199.525 252.584 -197.003 259.849 -193.522L260.96 -192.984C266.563 -190.322 272.337 -187.567 277.559 -183.975C287.531 -177.146 296.334 -169.207 303.718 -160.372C313.322 -148.896 318.353 -138.126 319.566 -126.495C320.125 -121.079 319.669 -116.722 318.08 -112.781C316.918 -109.878 314.734 -108.114 311.586 -107.497L311.557 -107.481L311.528 -107.472C310.057 -106.982 308.549 -106.739 306.924 -106.739C304.726 -106.739 302.386 -107.183 299.577 -108.135C293.716 -110.126 287.759 -113.178 280.86 -117.721L280.449 -117.987C273.337 -122.685 265.953 -127.526 258.349 -131.646C256.893 -132.419 255.467 -133.215 254.039 -134.003C248.848 -136.86 243.493 -139.827 237.911 -142.043C219.843 -149.224 203.328 -153.572 187.439 -155.344C182.909 -155.844 178.036 -156.312 173.12 -156.312C169.693 -156.312 166.576 -156.093 163.582 -155.618C163.093 -155.548 162.582 -155.368 162.093 -155.204C161.475 -155.002 160.894 -154.79 160.387 -154.79C160.096 -154.79 159.861 -154.86 159.651 -155.002C158.978 -155.462 158.735 -156.594 158.508 -157.671C158.416 -158.1 158.32 -158.56 158.199 -158.966C157.967 -159.747 157.625 -160.457 157.301 -161.153C156.797 -162.199 156.327 -163.189 156.221 -164.338L156.202 -164.556L156.018 -164.674C155.459 -164.97 155.246 -165.532 154.999 -166.188C154.926 -166.398 154.849 -166.602 154.749 -166.812C150.72 -175.657 145.774 -183.813 141.475 -190.62C140.545 -192.08 139.57 -193.555 138.633 -194.975C137.011 -197.433 135.338 -199.962 133.841 -202.553C127.678 -213.169 124.112 -224.597 123.244 -236.555C123.171 -237.493 123.104 -238.437 123.034 -239.38C122.585 -245.625 122.13 -252.057 121.243 -258.363C119.706 -269.276 117.18 -277.776 113.316 -285.168C109.344 -292.756 104.134 -299.444 97.8354 -305.088C92.4604 -309.88 86.0584 -313.862 78.2914 -317.218C78.1294 -317.288 77.9574 -317.342 77.7774 -317.39C77.4084 -317.531 77.0414 -317.639 76.7394 -317.912C81.8914 -318.951 86.9144 -319.669 92.0694 -320.122C93.0554 -320.215 94.0654 -320.277 95.0484 -320.339C96.7724 -320.457 98.5674 -320.574 100.313 -320.808C103.674 -321.278 107.113 -321.417 110.437 -321.567L111.176 -321.604C111.745 -321.621 112.345 -321.636 112.952 -321.636C115.907 -321.636 118.927 -321.339 121.855 -321.058C122.795 -320.956 123.744 -320.87 124.689 -320.778C128.756 -320.419 132.944 -319.795 137.125 -318.881C145.936 -316.985 154.566 -313.144 163.52 -307.134C170.05 -302.747 175.271 -296.956 180.056 -291.397C182.56 -288.487 184.942 -285.623 186.792 -282.351C186.88 -282.204 186.976 -282.063 187.079 -281.914C187.407 -281.407 187.623 -281.072 187.524 -280.587C187.454 -280.587 187.381 -280.587 187.311 -280.572C187.031 -280.555 186.766 -280.533 186.498 -280.533H186.369C184.509 -280.587 182.869 -280.602 181.343 -280.602C175.448 -280.602 170.627 -280.266 166.186 -279.509L165.59 -279.408C162.504 -278.892 159.32 -278.377 156.54 -276.518C153.448 -274.473 151.981 -271.601 152.175 -267.98C152.344 -264.717 153.908 -262.265 156.817 -260.759C158.324 -259.971 159.927 -259.566 161.571 -259.566C162.431 -259.566 163.314 -259.682 164.193 -259.901C168.182 -260.916 172.33 -261.197 176.346 -261.477C177.173 -261.532 177.993 -261.58 178.816 -261.641C179.544 -261.697 180.284 -261.744 181.089 -261.744C183.075 -261.744 185.097 -261.563 187.057 -261.391C188.638 -261.266 190.274 -261.125 191.892 -261.079C193.661 -261.024 195.599 -260.845 197.651 -260.572C202.949 -259.83 208.189 -258.628 213.227 -256.989C222.126 -254.1 229.976 -249.339 236.536 -242.869C241.081 -238.348 244.398 -232.277 246.678 -224.284L246.847 -223.728C247.34 -221.996 247.847 -220.208 247.995 -218.366C247.215 -218.383 246.494 -218.586 245.81 -218.789C245.464 -218.882 245.112 -218.984 244.751 -219.061C239.743 -220.13 234.727 -220.943 229.859 -221.473C229.19 -221.551 228.517 -221.589 227.873 -221.589C225.141 -221.589 222.63 -220.943 220.446 -219.646C217.419 -217.875 215.907 -215.213 215.963 -211.755C216.003 -208.501 217.485 -206.018 220.475 -204.161ZM224.515 -272.874C219.92 -274.833 215.091 -276.363 210.072 -277.424C207.55 -277.962 206.538 -278.993 206.038 -281.537C205.189 -285.869 203.291 -290.185 200.221 -294.691C197.36 -298.896 194.503 -302.714 191.569 -306.218C193.341 -317.716 196.57 -344.208 195.768 -380.62C195.139 -409.016 192.175 -437.609 186.95 -465.615C183.214 -485.637 178.305 -505.408 172.283 -524.711L221.129 -472.875C228.899 -464.616 238.691 -459.285 249.318 -457.404C251.333 -432.934 251.303 -408.152 249.193 -383.612C247.317 -361.833 243.831 -340.196 238.816 -319.324C233.771 -298.281 228.204 -282.348 224.515 -272.874ZM233.418 -485.911L157.01 -567.003C156.985 -567.074 156.956 -567.151 156.926 -567.221L156.85 -567.183L125.204 -600.778C130.448 -611.089 135.136 -621.736 139.236 -632.601L225.832 -540.691C233.757 -532.261 244.31 -527.624 255.539 -527.624C266.748 -527.624 277.301 -532.261 285.244 -540.691L342.019 -600.965L366.567 -574.902L282.721 -485.911C276.139 -478.925 267.388 -475.069 258.07 -475.069C248.759 -475.069 240.001 -478.925 233.418 -485.911ZM142.298 -556.528C154.47 -526.452 163.723 -494.809 169.796 -462.424C174.83 -435.55 177.706 -408.082 178.342 -380.809C178.934 -355.403 177.441 -334.881 175.948 -321.409C164.876 -329.926 152.069 -335.646 137.691 -338.496C136.603 -338.714 135.511 -338.918 134.419 -339.104C135.901 -350.493 136.996 -367.205 135.357 -388.208C133.514 -411.805 128.579 -436.096 120.706 -460.411C112.08 -487.035 99.8764 -513.762 84.3664 -540.019C87.3814 -543.477 90.3484 -547.044 93.2424 -550.713C101.623 -561.297 109.271 -572.53 116.169 -584.277L142.298 -556.528ZM103.99 -455.165C111.415 -432.42 116.103 -409.744 117.912 -387.764C119.511 -368.36 118.559 -352.031 117.07 -340.797C115.589 -340.852 114.088 -340.883 112.573 -340.883C106.638 -340.883 100.369 -340.509 93.9374 -339.767C82.3694 -338.464 71.3824 -336.231 60.3434 -332.985C60.5124 -333.657 60.6564 -334.296 60.7994 -334.927C61.1854 -336.654 61.5594 -338.253 61.9914 -339.83C66.0134 -354.355 68.5024 -369.435 69.3934 -384.611C70.0184 -395.195 69.9964 -406.255 69.3404 -417.471C67.6094 -446.719 61.0604 -474.584 54.2324 -500.327C53.5154 -503.012 52.7464 -505.791 51.9304 -508.624L51.8964 -508.765C58.7254 -514.229 65.3484 -520.16 71.7524 -526.538C85.3914 -502.911 96.2184 -478.971 103.99 -455.165ZM57.6184 -149.365C56.2944 -149.233 54.9634 -149.171 53.6444 -149.171C46.2734 -149.171 39.0234 -151.044 30.8814 -155.032L44.3184 -170.432L57.6184 -149.365ZM240.61 23.3883C230.752 2.71832 218.426 -17.7397 203.986 -37.4317C188.796 -58.1247 171.213 -78.0377 151.587 -96.7467C154.624 -99.6587 157.202 -103.296 159.233 -107.613C162.751 -115.044 164.252 -123.247 163.84 -132.63C163.773 -134.05 163.64 -135.479 163.512 -136.86C163.461 -137.423 163.412 -137.975 163.365 -138.546C163.692 -138.656 164.064 -138.702 164.502 -138.702C164.814 -138.702 165.141 -138.671 165.457 -138.656C165.66 -138.632 165.862 -138.616 166.057 -138.616C173.517 -138.233 180.905 -137.468 188.186 -136.298C210.183 -120.024 228.822 -102.867 243.596 -85.3277C255.348 -71.3787 264.689 -57.1727 271.345 -43.0687C277.448 -30.1577 280.383 -19.1047 281.581 -11.6507C278.522 -7.8017 275.595 -3.80469 272.8 0.378296C263.159 14.8183 255.819 30.4293 250.811 47.1173C248.097 40.0133 244.743 32.0443 240.61 23.3883ZM231.062 -124.294C242.84 -119.251 253.776 -112.742 263.969 -106.318C265.233 -105.505 266.527 -104.694 267.8 -103.875C273.933 -99.9567 280.265 -95.8897 287.003 -92.8297C294.1 -89.5977 300.093 -87.9897 305.896 -87.7637C306.344 -87.7477 306.785 -87.7477 307.234 -87.7477C313.897 -87.7477 320.038 -89.7227 325.473 -93.6407C329.966 -96.8667 333.246 -101.299 335.231 -106.818C335.666 -108.051 336.062 -109.331 336.394 -110.603C343.88 -99.2777 352.999 -89.6297 363.634 -81.7847C369.421 -77.4927 375.562 -73.8707 381.967 -70.8737C371.017 -68.9537 360.383 -66.0027 350.168 -62.0297C329.561 -54.0367 311.426 -42.4607 295.938 -27.4727C289.73 -49.7347 273.484 -84.9537 231.062 -124.294ZM313.91 -322.595C309.66 -295.541 309.417 -269.704 309.52 -247.615C309.623 -225.478 310.947 -202.552 313.462 -179.472C313.514 -178.918 313.586 -178.379 313.638 -177.841C309.027 -182.828 304.269 -187.223 299.827 -191.111C290.715 -199.119 280.162 -205.722 267.556 -211.288C265.475 -212.217 264.865 -213.169 264.828 -215.542C264.519 -234.548 257.246 -250.019 243.206 -261.549C242.14 -262.43 241.037 -263.257 239.934 -264.078C243.898 -274.053 250.09 -291.405 255.687 -314.759C260.937 -336.583 264.585 -359.188 266.535 -381.957C268.682 -407.02 268.777 -432.35 266.807 -457.406C275.028 -458.857 282.736 -462.363 289.406 -467.709L349.557 -403.875C342.658 -396.359 336.591 -387.788 331.561 -378.39C323.104 -362.605 317.345 -344.333 313.91 -322.595ZM303.151 -481.501L331.686 -511.802L400.014 -439.577C399.213 -437.805 398.456 -436.026 397.741 -434.223C388.328 -431.475 379.378 -427.416 371.002 -422.022C368.574 -420.461 366.222 -418.798 363.905 -417.028L303.151 -481.501ZM345.071 -525.992L378.863 -561.859L445.692 -490.922C443.279 -489.47 440.926 -487.925 438.609 -486.301C427.321 -478.331 417.745 -468.622 410.016 -457.327L345.071 -525.992ZM355.403 -615.148L386.953 -648.657L516.866 -510.771H516.911C509.622 -510.093 502.613 -509.25 495.744 -508.251C484.264 -506.565 473.726 -503.809 463.93 -499.945L355.403 -615.148ZM70.4184 -744.533H141.927C141.92 -739.546 141.902 -734.503 141.887 -733.801C140.188 -672.573 117.813 -610.566 79.9064 -562.592C60.5164 -538.06 38.3754 -518.694 14.1074 -505.027C-6.90462 -493.202 -28.5926 -486.231 -50.5366 -484.209C-45.7086 -488.596 -40.2706 -494.294 -34.3286 -501.234C-19.5826 -518.428 -3.55762 -541.057 10.8054 -564.919C32.2684 -600.637 67.7414 -668.905 70.3444 -733.801C70.3784 -734.503 70.3944 -739.546 70.4184 -744.533ZM52.9744 -744.533C52.9194 -739.116 52.8534 -732.489 52.7644 -731.069C49.3044 -672.956 17.6074 -611.19 -1.72961 -578.477C-15.1286 -555.802 -30.2866 -533.962 -44.3916 -517.008C-52.1206 -507.72 -58.0516 -501.671 -62.3136 -497.838L-64.2436 -732.021L-64.2776 -744.533H52.9744ZM-160.473 -724.114C-160.473 -735.393 -151.86 -744.533 -141.234 -744.533H-81.6966L-81.6746 -733.301L-79.7776 -503.13C-86.1726 -509.804 -95.0416 -520.544 -104.779 -536.788C-117.439 -557.894 -128.945 -583.746 -138.972 -613.634C-147.15 -638.003 -154.332 -665.159 -160.473 -694.64V-724.114ZM-160.473 -625.147C-134.725 -544.328 -104.338 -501.405 -87.5576 -485.536C-106.055 -488.596 -124.385 -495.285 -142.278 -505.503C-148.43 -509.016 -154.508 -512.981 -160.473 -517.305V-625.147ZM-160.473 -495.285C-157.2 -493.163 -153.89 -491.141 -150.54 -489.236C-138.56 -482.398 -126.393 -476.997 -114.093 -473.063L-114.048 -472.837C-113.504 -469.886 -113.033 -467.146 -112.596 -464.446C-109.621 -445.837 -107.684 -428.923 -106.679 -412.702C-106.076 -402.953 -106.908 -392.83 -109.206 -381.746C-111.115 -372.511 -113.265 -363.161 -115.331 -354.121C-115.835 -351.944 -116.336 -349.766 -116.829 -347.588C-117.443 -344.88 -118.318 -342.116 -119.498 -339.151C-119.877 -339.197 -120.134 -339.409 -120.432 -339.665C-120.561 -339.767 -120.686 -339.869 -120.818 -339.962C-132.975 -348.392 -146.319 -352.748 -160.473 -352.959V-495.285ZM-160.473 -335.63C-155.651 -335.325 -150.978 -334.484 -146.544 -333.078C-134.428 -329.228 -125.79 -322.64 -120.148 -312.947C-119.523 -311.878 -119.453 -311.371 -120.277 -310.34C-130.47 -297.703 -135.816 -282.131 -136.184 -264.077C-136.294 -258.596 -135.515 -253.351 -134.735 -248.91C-133.404 -241.377 -131.583 -234.993 -129.164 -229.365C-125.55 -220.973 -120.329 -212.637 -112.728 -203.13C-108.458 -197.791 -103.55 -191.391 -99.5186 -184.405C-97.9446 -181.658 -96.3126 -178.729 -95.1466 -175.655C-95.6366 -175.217 -96.2206 -175.038 -96.8196 -174.859C-97.0656 -174.789 -97.3096 -174.717 -97.5556 -174.609C-103.146 -172.469 -107.727 -170.488 -111.981 -168.357L-112.216 -168.247C-124.102 -162.3 -136.397 -156.156 -148.914 -151.192L-149.359 -151.004C-152.963 -149.583 -156.658 -148.116 -160.472 -147.14V-335.63H-160.473ZM-160.473 -128.47C-152.92 -130.382 -144.907 -133.201 -135.77 -137.158C-127.118 -140.904 -118.645 -145.385 -110.445 -149.732C-107.794 -151.128 -105.044 -152.582 -102.337 -153.986C-99.2476 -155.594 -96.0456 -157.109 -92.9456 -158.577L-91.5106 -159.247C-91.3596 -159.325 -91.2166 -159.395 -91.0696 -159.497C-90.6726 -159.709 -90.2866 -159.926 -89.8016 -159.926H-89.7606C-88.7356 -156.25 -88.1576 -152.41 -88.0586 -148.46C-88.0546 -148.14 -88.0546 -147.836 -88.0436 -147.5C-103.334 -141.248 -116.519 -130.593 -126.418 -116.442C-137.59 -100.487 -143.499 -81.4957 -143.499 -61.5447C-143.499 -56.0417 -143.047 -50.5937 -142.156 -45.2787C-143.01 -44.8947 -143.863 -44.5057 -144.705 -44.0987C-150.122 -41.5217 -155.362 -38.5557 -160.473 -35.2007V-128.47ZM-160.473 -11.6677C-155.092 -15.8667 -149.643 -19.5427 -143.98 -22.6887C-141.66 -23.9767 -139.311 -25.1787 -136.945 -26.3027C-133.082 -16.3737 -127.561 -7.18671 -120.538 0.877319H-121.583C-123.613 0.877319 -125.654 0.940308 -127.657 1.04028C-135.306 1.50031 -142.789 3.29633 -148.456 4.8103C-152.507 5.9043 -156.504 7.37231 -160.473 8.9953V-11.6677ZM-160.473 127.756C-159.932 129.021 -159.402 130.183 -158.917 131.183C-155.92 137.497 -152.655 143.407 -149.496 149.127L-149.394 149.307C-148.371 151.165 -147.342 153.023 -146.334 154.905C-142.528 161.914 -139.539 168.509 -137.193 175.105C-134.056 183.91 -132.783 191.833 -133.317 199.31C-133.747 205.351 -135.306 208.201 -136.45 209.808C-138.969 213.36 -142.334 216.123 -146.746 218.231C-151.132 220.331 -155.655 221.423 -160.473 221.689V127.756ZM-141.234 332.425C-151.86 332.425 -160.473 323.286 -160.473 311.991V302.133C-159.567 302.156 -158.637 302.235 -157.751 302.235C-151.684 302.235 -145.708 301.626 -139.995 300.455C-135.336 299.464 -130.739 297.934 -126.676 296.584C-116.053 293.072 -107.287 288.497 -99.8616 282.627C-99.5456 282.378 -99.2326 282.112 -98.9126 281.847C-98.0706 281.121 -97.1986 280.379 -96.1556 279.879L-95.7466 279.684L-95.6296 280.137C-95.4376 280.801 -95.6006 281.364 -95.7366 281.864C-95.7806 282.003 -95.8206 282.153 -95.8546 282.3C-97.4356 290.262 -98.1556 296.764 -98.0936 302.798C-98.0416 308.699 -97.5786 314.804 -96.6956 321.462C-96.1706 325.396 -95.5266 329.025 -94.7506 332.427H-141.234V332.425ZM-82.5416 218.199C-83.2996 228.806 -87.4876 237.97 -91.0576 244.754C-92.3486 247.204 -93.9336 249.5 -95.4736 251.7C-95.9736 252.426 -96.4746 253.153 -96.9666 253.887C-101.854 261.13 -108.587 267.218 -117.526 272.51C-117.585 272.541 -117.637 272.58 -117.699 272.613C-117.971 272.792 -118.284 272.987 -118.688 272.987C-118.795 273.081 -118.931 273.167 -119.115 273.167C-119.303 273.363 -119.556 273.55 -119.902 273.597C-120.045 273.713 -120.214 273.824 -120.431 273.824H-120.494C-120.887 274.306 -121.41 274.503 -121.883 274.667C-122.038 274.744 -122.192 274.791 -122.34 274.87C-126.734 276.907 -131.305 278.435 -135.247 279.709C-142.704 282.113 -150.304 283.331 -157.813 283.331C-158.703 283.331 -159.586 283.284 -160.472 283.245V240.424C-153.162 240.159 -146.105 238.488 -139.475 235.31C-132.393 231.923 -126.616 227.131 -122.325 221.058C-118.45 215.594 -116.284 208.935 -115.702 200.724C-114.974 190.453 -116.596 179.908 -120.666 168.479C-123.351 160.932 -126.741 153.43 -131.018 145.547C-132.087 143.572 -133.169 141.621 -134.246 139.669C-137.276 134.182 -140.398 128.523 -143.153 122.739C-145.539 117.705 -146.911 113.669 -147.586 109.633C-152.004 83.4763 -135.952 58.2103 -130.675 49.9053C-130.072 48.9443 -129.595 48.1963 -129.278 47.6573C-129.017 47.2193 -128.679 46.6353 -128.352 46.0173V45.9473C-128.933 45.7292 -129.58 45.6043 -130.404 45.6043C-130.892 45.6043 -131.404 45.6512 -131.882 45.6813L-132.065 45.7053C-136.934 46.0483 -142.089 47.2733 -147.823 49.4673C-152.346 51.1763 -156.503 52.9953 -160.472 54.8843V29.9693C-149.771 24.5983 -138.184 21.3823 -125.914 20.4933C-124.171 20.3513 -122.354 20.2823 -120.531 20.2823C-114.162 20.2823 -107.337 21.0473 -99.0636 22.6783L-98.4486 22.8033C-96.8716 23.1083 -95.2456 23.4203 -93.6756 24.0133L-93.3566 24.1383L-93.4366 24.4973C-93.6166 25.3173 -94.0366 25.9263 -94.3966 26.4483C-94.5186 26.6043 -94.6286 26.7763 -94.7196 26.9403L-94.9296 27.2593C-98.0226 32.2393 -101.221 37.3753 -103.917 42.7303C-108.286 51.3863 -111.584 59.5363 -114.011 67.6463C-117.868 80.5413 -119.28 93.9823 -118.324 108.734C-117.486 121.528 -114.342 133.759 -108.973 145.07C-105.69 151.985 -101.546 158.956 -95.5436 167.666C-94.5736 169.064 -93.7866 170.5 -93.1356 172.014C-89.9946 179.36 -87.2446 187.306 -84.9686 195.611C-82.8186 203.501 -82.0226 210.886 -82.5416 218.199ZM80.7084 320.149C77.4754 324.535 73.7954 328.618 69.7834 332.425H-16.5926C-19.3026 329.023 -21.6036 325.26 -23.3696 321.109C-26.9176 312.756 -27.8776 304.912 -26.2956 297.115C-25.3816 292.548 -23.7626 289.246 -21.1996 286.702C-18.9456 284.454 -15.9016 282.557 -11.9106 280.926C-5.42462 278.24 2.02939 276.906 10.8654 276.804H11.9754H12.6444C20.2704 276.851 28.0584 277.748 36.3024 278.725L36.8624 278.772C38.1314 278.928 39.4034 279.077 40.6794 279.224C47.0594 279.943 53.0784 280.301 59.0644 280.301C59.6164 280.301 60.1564 280.301 60.7004 280.286C74.0124 280.137 87.4224 274.01 100.554 262.122L101.289 261.45L101.193 262.482C100.991 264.48 100.726 266.446 100.413 268.312C98.3024 280.833 94.8324 292.711 90.0994 303.592C87.4214 309.758 84.2634 315.332 80.7084 320.149ZM143.177 262.613C141.824 268.155 140.31 272.667 137.324 276.694C135.275 279.465 133.628 282.68 132.256 285.467C128.873 292.281 128.619 299.048 131.481 306.167C133.227 310.53 135.132 314.895 136.978 319.117L137.423 320.163C138.066 321.63 138.49 323.152 138.729 324.815C139.089 327.389 139.409 329.958 139.702 332.423H94.0484C94.2314 332.174 94.4374 331.955 94.6184 331.706C99.0124 325.735 102.887 318.929 106.138 311.442C111.5 299.11 115.423 285.707 117.798 271.618C119.03 264.281 119.534 256.343 119.335 247.343C119.192 241.255 118.993 235.306 118.07 229.313C117.599 226.307 116.835 223.123 115.651 219.315C115.393 218.47 115.081 217.588 114.544 216.902C114.279 217.057 114.143 217.34 113.995 217.635C113.945 217.738 113.896 217.823 113.849 217.916C109.738 225.207 104.516 231.42 99.4904 237.064C99.2584 237.321 99.0164 237.585 98.7514 237.881C93.0594 244.305 77.9534 261.346 60.4934 261.525C60.0164 261.534 59.5414 261.534 59.0634 261.534C53.7064 261.534 48.3044 261.229 42.5574 260.581C41.1234 260.417 39.6884 260.253 38.2544 260.089C29.9234 259.107 21.2994 258.091 12.7584 258.052C12.5004 258.037 12.2494 258.037 11.9924 258.037C0.428391 258.037 -9.47763 259.816 -18.2916 263.446C-24.4406 265.959 -29.3346 269.089 -33.2766 273.008C-38.5236 278.222 -41.8886 284.811 -43.5756 293.187C-45.9666 305.028 -44.6206 316.689 -39.4766 328.802C-38.9436 330.058 -38.2886 331.222 -37.6956 332.423H-76.1736C-77.8396 326.852 -79.0266 321.012 -79.6666 314.916C-80.8546 303.426 -80.5016 294.09 -78.5456 285.56C-77.7846 282.204 -76.8986 278.652 -75.2286 275.351L-75.2186 275.241C-75.2026 275.053 -75.1816 274.867 -75.0856 274.664L-74.9786 274.453C-72.9156 270.23 -70.7796 265.867 -68.2496 261.831C-67.2826 260.286 -66.0876 259.006 -64.5906 257.905C-61.1786 255.368 -57.4276 252.902 -53.1326 250.365C-44.0796 245.002 -35.1446 241.973 -25.8076 241.061C-22.0496 240.709 -18.0676 240.513 -13.6326 240.513C-10.7796 240.513 -7.77562 240.599 -4.17262 240.748C-2.03963 240.841 0.122375 240.95 2.21138 241.061C6.71538 241.302 11.3634 241.561 15.9384 241.561C18.8904 241.561 21.5604 241.458 24.0934 241.24C30.1364 240.749 35.1884 240.163 40.1824 238.914C44.9804 237.72 50.4224 236.362 55.4414 233.856C57.3204 232.918 59.3174 232.186 61.2434 231.491C62.3624 231.077 63.5124 230.664 64.6274 230.203C74.7394 226.074 83.9174 220.415 91.9114 213.413C103.523 203.243 113.507 190.691 122.434 175.033C122.479 174.931 122.526 174.838 122.582 174.745C122.828 174.268 123.123 173.675 123.876 173.402L124.13 173.307L124.546 173.877C124.828 174.268 125.119 174.657 125.399 175.056C128.432 179.326 131.315 184.112 134.217 189.676C138.316 197.551 141.192 205.036 142.994 212.546C147.072 229.565 147.134 246.408 143.177 262.613ZM132.095 153.507C129.672 150.744 127.233 149.37 124.428 149.198C124.012 149.572 123.52 149.572 123.123 149.58C122.942 149.58 122.766 149.58 122.622 149.612C119.405 150.315 117.302 151.992 116.21 154.74C115.614 156.254 114.805 157.581 114.019 158.876C113.867 159.142 113.709 159.407 113.548 159.657C112.79 160.953 111.918 162.178 111.072 163.372C110.23 164.559 109.359 165.785 108.605 167.065C105.741 171.888 102.545 176.594 98.8394 181.465C95.8314 185.4 92.8854 188.88 89.8224 192.049C83.8404 198.278 78.4084 202.867 72.7424 206.474C63.4834 212.375 53.3944 216.294 42.7524 218.12C42.5274 218.159 42.3074 218.198 42.0864 218.229C41.1274 218.417 40.1374 218.595 39.1074 218.595C38.7364 218.595 38.3954 218.565 38.0534 218.518L37.5994 218.463L37.7324 217.986C37.9714 217.198 38.5234 216.932 38.9314 216.738C39.0204 216.69 39.1114 216.652 39.1964 216.605C40.0044 216.135 40.8214 215.691 41.6444 215.231C43.0864 214.443 44.5834 213.598 46.0134 212.741C49.0174 210.914 52.0254 208.979 54.9374 207.096C56.3394 206.206 57.7324 205.31 59.1294 204.427C66.4184 199.806 72.7874 194.389 80.3574 187.794C84.2074 184.452 87.5834 180.534 90.8374 176.749C94.6184 172.369 98.9384 167.093 102.373 161.247C103.99 158.484 105.417 155.579 106.862 152.59C108.943 148.275 110.867 143.871 112.573 139.508C115.47 132.101 117.32 125.372 118.214 118.925C118.835 114.445 119.423 109.667 119.202 104.805C119.019 100.676 118.757 96.2653 118.162 91.9173C117.323 85.8533 116.25 79.3523 114.154 73.0283C111.484 65.0043 108.219 57.5103 104.443 50.6653C112.687 54.2483 120.692 59.3843 128.341 66.0503C133.753 70.7643 138.996 76.2293 144.023 82.3963C145.402 84.3463 146.77 86.3143 148.157 88.1253C156.382 98.8343 162.593 109.215 167.12 119.895C174.374 137.003 179.419 153.254 182.523 169.592C185.005 182.682 185.601 195.967 184.288 209.065C183.137 220.61 180.453 232.341 176.327 243.924C176.136 244.447 175.956 244.987 175.779 245.525C175.183 247.328 174.558 249.217 173.481 250.864C170.318 259.154 165.719 267.061 159.424 274.992L159.188 275.303L158.894 275.054C158.393 274.64 158.46 274.242 158.566 273.946C160.001 269.926 161.17 265.618 162.056 261.115C165.689 242.552 164.913 223.25 159.736 203.743C157.493 195.305 153.908 186.828 148.443 177.079C143.295 167.892 137.949 160.189 132.095 153.507ZM155.957 332.425C155.236 327.04 154.405 321.655 153.42 316.261C152.754 312.631 152.048 309.665 151.18 306.886C150.838 305.762 151.107 305.083 152.107 304.53C160.998 299.627 168.885 292.54 176.229 282.877C177.287 281.457 178.314 280.036 179.303 278.576C181.197 297.2 185.973 315.207 193.43 332.426H155.957V332.425ZM214.819 332.425C206.836 316.519 200.232 297.199 198.203 274.383C197.787 269.669 197.574 264.892 197.574 260.201C197.562 232.647 204.457 206.319 218.07 181.933C226.824 166.23 237.823 152.313 251.672 139.37C255.385 135.896 259.202 132.587 263.144 129.41C262.96 127.044 262.784 124.609 262.622 122.072L262.599 121.737C262.349 117.951 261.938 111.645 261.938 104.174C261.945 69.4713 270.866 38.5063 288.465 12.1693C305.549 -13.4237 328.523 -31.9387 356.749 -42.8907C367.339 -47.0047 378.415 -49.8767 389.902 -51.5327C394.109 -41.9857 400.426 -31.0267 409.876 -20.5437C394.837 -20.1847 380.525 -17.3977 367.303 -12.2707C345.026 -3.63672 326.935 10.9273 313.528 31.0193C299.687 51.7503 292.664 76.3543 292.664 104.172C292.664 110.511 293.017 115.912 293.252 119.48L293.267 119.815C293.634 125.397 294.047 130.61 294.444 135.661V135.739C294.716 139.094 294.974 142.358 295.194 145.481C286.781 151.116 279.11 157.189 271.977 163.854C260.577 174.5 251.598 185.834 244.493 198.542C233.734 217.821 228.285 238.568 228.293 260.182C228.293 263.875 228.458 267.621 228.789 271.329C231.075 297.095 240.757 317.421 250.804 332.422H214.819V332.425ZM394.896 228.901C392.66 236.746 391.042 244.739 390.138 252.887C389.483 258.788 389.152 264.69 388.858 270.615C388.46 278.506 389.005 286.32 390.005 294.117C390.402 297.271 390.821 300.431 391.226 303.593C391.881 307.075 392.535 310.572 393.197 314.108C392.63 314.108 392.424 313.82 392.182 313.624C384.195 306.935 375.93 300.612 368.237 293.524C359.095 285.079 349.549 277.117 341.805 267.094C340.879 265.915 339.871 264.816 339.047 263.558C337.15 260.748 337.201 259.492 339.069 256.705C340.739 254.23 342.887 252.294 345.217 250.586C345.482 250.109 345.946 249.852 346.358 249.54C351.961 245.004 358.124 241.422 364.464 238.167C374.414 233.063 384.79 229.073 395.219 225.21C395.366 225.139 395.579 225.069 395.837 225.475C395.565 226.52 395.241 227.707 394.896 228.901ZM404.104 135.398C403.728 128.959 403.147 122.518 402.692 116.072C402.323 110.763 401.912 105.456 402.184 100.109C402.287 98.0883 402.419 97.8233 404.25 97.3923C406.898 96.7673 409.589 96.5182 412.281 96.7673C412.973 96.7372 413.671 96.6663 414.355 96.7053C420.57 97.0573 426.739 97.8682 432.815 99.2892C447.794 102.77 461.856 108.999 475.771 115.642C476.653 116.055 477.035 116.602 476.918 117.617C476.844 118.288 477.006 118.937 477.131 119.599C477.462 121.332 477.462 121.356 476.094 122.285C472.328 124.806 468.593 127.405 465.012 130.216C449.015 142.806 435.176 157.769 422.518 174.005C420.128 177.08 417.966 180.359 415.708 183.544C413.671 186.883 411.642 190.209 409.611 193.55C409.258 193.339 409.332 193.043 409.296 192.809C408.854 188.446 408.332 184.076 407.67 179.743C406.67 173.046 405.692 166.326 405.303 159.535C404.816 151.492 404.567 143.445 404.104 135.398ZM589.254 311.991C589.254 323.286 580.643 332.425 570.015 332.425H487.309C482.316 327.15 477.763 321.437 474.035 315.029C469.291 306.856 465.578 298.2 463.945 288.7C462.121 278.077 461.856 267.359 462.996 256.634C463.452 252.342 464.342 248.08 465.555 243.944C465.989 240.968 466.879 238.136 467.996 235.388C472.88 223.4 480.374 213.487 489.647 205.039C502.849 193.004 527.331 181.888 544.246 180.522C552.505 179.858 560.697 179.725 568.868 180.881C575.84 181.872 582.665 183.645 589.254 186.25V311.991ZM589.254 167.479C586.768 166.666 584.253 165.918 581.694 165.325C576.429 164.123 571.169 162.991 565.765 162.638C562.087 162.389 558.396 161.968 554.696 161.999C549.946 162.03 545.202 162.46 540.466 163.037C535.803 163.646 531.192 164.504 526.633 165.73C520.352 167.416 514.366 169.967 508.416 172.661C500.554 176.221 493.082 180.591 486.096 185.853C479.131 191.067 472.99 197.217 467.586 204.228C464.173 208.661 460.871 213.171 458.098 218.106C453.766 225.779 450.788 233.99 448.942 242.693C447.853 247.891 446.854 253.105 446.427 258.389C446.177 261.645 445.729 264.891 446.001 268.169C446.206 273.875 446.405 279.573 446.993 285.272C447.986 294.913 450.575 303.998 454.37 312.779C457.4 319.812 461.157 326.337 465.548 332.425H417.724C415.819 327.797 414.113 323.068 412.664 318.173C410.59 311.241 409.539 304.045 408.406 296.887C407.162 288.981 406.419 281.034 406.7 273.01C406.809 269.825 406.839 266.617 407.28 263.448C407.008 262.807 407.03 262.129 407.133 261.472C407.603 258.592 407.766 255.673 408.103 252.77C408.765 247.016 409.84 241.358 411.384 235.807C414.943 222.937 420.246 210.909 427.122 199.661C432.498 190.856 438.712 182.731 445.463 175.104C453.501 166.018 461.856 157.26 471.218 149.666C479.257 143.141 487.64 137.161 496.553 132.08C507.599 125.766 519.307 121.254 531.42 117.881C539.326 115.665 547.372 114.471 555.49 113.941C561.955 113.535 568.412 113.996 574.796 115.166C579.664 116.072 584.473 117.274 589.254 118.616V167.479ZM589.254 98.1813C582.474 96.2924 575.59 94.9724 568.589 94.3793C557.065 93.3973 545.643 94.4653 534.34 96.9323C523.256 99.3433 512.527 103.004 502.062 107.563C500.554 108.218 500.628 108.14 499.65 106.891C498.848 105.877 499.591 105.307 499.988 104.643C507.203 92.6163 514.858 80.9003 522.977 69.5353C528.677 61.5573 534.568 53.7673 540.945 46.3993C542.511 44.6203 544.268 43.1603 546.283 42.0113C549.115 40.3803 551.968 40.2163 554.961 41.6143C558.432 43.2393 561.22 45.7983 563.669 48.7803C567.728 53.7133 571.067 59.1933 574.347 64.7263C579.789 73.9213 584.525 83.5143 589.254 93.1163V98.1813ZM589.254 53.6263C586.982 49.7553 584.635 45.9303 582.113 42.1993C578.825 37.3603 575.163 32.9113 570.722 29.2183C567.485 26.5093 563.985 24.3483 560.087 22.8723C552.718 20.0863 545.526 20.6953 538.517 24.2613C533.994 26.5733 530.096 29.7823 526.677 33.6923C518.514 43.0583 511.255 53.1903 504.268 63.5553C497.194 74.0773 490.399 84.8262 484.603 96.2213C483.934 97.5093 483.919 97.5013 482.632 96.8853C472.726 92.1393 462.702 87.7373 452.354 84.1773C441.757 80.5323 430.909 78.0353 419.761 77.2143C413.738 76.7623 407.707 76.8643 401.758 78.2523C399.97 78.6753 398.256 79.2833 396.58 80.0483C389.196 83.4593 385.349 89.5253 384.438 97.9163C383.791 103.848 384.217 109.772 384.614 115.696C385.129 123.134 385.769 130.582 386.343 138.004C386.997 146.248 387.13 154.529 387.865 162.748C388.498 169.804 389.49 176.783 390.601 183.746C391.652 190.317 392.726 196.89 393.786 203.446C394.013 204.843 394.02 204.875 392.594 205.389C387.122 207.318 381.673 209.331 376.275 211.517C365.868 215.708 355.704 220.462 346.048 226.356C339.761 230.179 333.944 234.714 328.818 240.196C325.685 243.536 323.14 247.29 321.404 251.661C318.934 257.883 319.184 263.986 321.868 270.051C323.214 273.08 325.023 275.797 327.045 278.364C333.076 285.998 339.547 293.1 346.725 299.548C356.227 308.088 365.721 316.628 375.863 324.277C379.04 326.673 382.283 328.967 385.46 331.356C385.953 331.708 386.498 332.043 386.989 332.424H357.69C347.129 324.058 336.599 315.143 326.832 304.762C326.361 304.263 325.89 303.747 325.398 303.233C317.404 294.787 305.314 282.033 303.725 264.142C302.931 255.049 304.93 246.112 309.689 237.587C312.852 231.92 317.117 226.606 322.728 221.375C337.989 207.137 356.742 198.427 375.4 191.27C375.032 189.006 374.672 186.711 374.326 184.431C372.619 173.442 371.502 162.202 370.899 150.072C370.553 143.257 370.031 136.49 369.465 129.333C369.09 124.517 368.692 119.544 368.362 114.564L368.34 114.158C367.671 103.964 366.663 88.5643 375.495 75.3263C386.152 59.3793 403.617 56.0303 416.414 56.0303C428.696 56.0303 440.963 58.9023 450.273 61.4003C459.12 63.7892 468.35 67.0673 479.014 71.6503C479.131 71.4303 479.271 71.2043 479.396 70.9863C485.368 61.0033 491.979 50.9333 499.672 40.2153C500.202 39.4893 500.716 38.7473 501.253 37.9993C507.085 29.8343 513.696 20.5683 522.433 13.1623C531.641 5.33228 542.283 1.20331 553.196 1.20331C565.963 1.20331 578.539 6.7533 589.254 16.7663V53.6263ZM589.254 -8.33472C578.061 -15.3747 565.765 -19.1837 553.196 -19.1837C537.877 -19.1837 523.088 -13.5017 510.446 -2.77771C499.833 6.23932 492.127 17.0343 485.941 25.7133L485.876 25.8223C485.375 26.5082 484.89 27.1883 484.397 27.8833C479.734 34.3843 475.425 40.6683 471.41 46.8593C465.746 44.7913 460.334 43.0883 454.98 41.6433C444.595 38.8583 430.814 35.6583 416.414 35.6583C406.317 35.6583 396.948 37.3133 388.564 40.5763C376.576 45.2123 366.913 52.9473 359.831 63.5473C347.027 82.7253 348.431 104.082 349.174 115.572L349.211 115.978C349.557 121.113 349.947 126.156 350.328 131.041C350.88 138.066 351.403 144.653 351.719 151.141C352.189 160.546 352.947 169.475 354.035 178.171C339.21 184.744 323.67 193.361 310.05 206.084C302.894 212.765 297.386 219.665 293.171 227.206C286.295 239.507 283.427 252.582 284.619 266.062C286.861 291.274 302.511 307.814 311.851 317.672L311.889 317.727C312.359 318.218 312.793 318.678 313.241 319.147C317.705 323.885 322.265 328.255 326.884 332.423H275.323C264.107 319.037 250.473 298.268 247.906 269.417C247.634 266.342 247.495 263.235 247.495 260.176C247.487 242.262 252.039 225.02 261.019 208.924C267.057 198.098 274.794 188.348 284.655 179.153C293.554 170.832 303.622 163.402 315.109 156.689C315.035 155.463 314.97 154.238 314.911 153.012C314.624 147.104 314.123 140.781 313.586 134.036C313.19 129.032 312.778 123.866 312.424 118.425L312.395 118.068C312.174 114.577 311.859 109.793 311.859 104.172C311.866 80.6703 317.698 60.0253 329.193 42.8053C340.305 26.1563 355.352 14.0663 373.892 6.86829C386.011 2.16931 399.279 -0.203735 413.333 -0.203735C428.983 -0.203735 443.353 2.60028 454.913 5.49426C455.208 5.08826 455.944 4.0343 455.944 4.0343C462.879 -5.67572 472.365 -18.9847 486.265 -30.7867C504.974 -46.6627 527.059 -55.0377 550.137 -55.0377C566.331 -55.0377 578.929 -53.2888 589.254 -49.9407V-8.33472ZM589.254 -83.1267C537.348 -83.3457 498.238 -94.6327 492.516 -96.9507C490.678 -97.6927 484.588 -99.8927 490.405 -110.477C490.641 -110.891 490.751 -111.36 490.883 -111.82L490.891 -111.86C491.015 -112.164 491.391 -112.819 491.788 -113.53C492.156 -114.162 492.553 -114.881 492.95 -115.676C494.237 -118.181 495.576 -120.742 496.863 -123.216L496.944 -123.364C497.804 -125.027 498.679 -126.705 499.546 -128.36C503.07 -135.19 506.857 -142.027 510.431 -148.412C512.984 -152.971 515.969 -158.27 519.131 -163.321C521.051 -166.395 522.971 -169.518 524.831 -172.515L524.882 -172.609C527.537 -176.91 530.281 -181.382 533.038 -185.708C537.804 -193.162 541.547 -199.281 544.842 -204.971C544.989 -205.213 545.423 -205.978 545.423 -205.978L545.732 -205.87C549.872 -204.192 553.828 -203.115 557.822 -202.569C559.653 -202.263 561.492 -202.116 563.286 -202.116H563.374C563.801 -202.116 564.213 -202.116 564.646 -202.131H565.066C566.662 -202.131 568.221 -202.186 569.669 -202.326L569.898 -202.349L570.023 -202.162C570.64 -201.256 571.273 -200.336 571.943 -199.391L573.34 -197.37C578.223 -190.36 583.282 -183.093 587.9 -175.849C588.35 -175.138 588.805 -174.413 589.254 -173.703V-83.1267ZM524.368 -237.038L524.397 -236.788L524.221 -236.64C524.044 -236.515 523.875 -236.375 523.698 -236.249C523.221 -235.89 522.794 -235.532 522.448 -235.258C522.286 -235.117 522.066 -234.945 521.918 -234.837L521.896 -234.806L521.794 -234.758C521.544 -234.665 521.315 -234.571 521.08 -234.462L521.051 -234.446C519.535 -233.752 518.19 -232.667 517.153 -231.324L517.116 -231.278L517.079 -231.246C497.157 -215.69 478.183 -202.287 459.054 -190.29C451.899 -185.81 443.324 -180.799 433.961 -177.614L433.549 -177.481C431.344 -176.732 429.445 -176.091 427.791 -175.888C427.21 -175.819 426.615 -175.685 426.041 -175.513L425.968 -175.491L425.894 -175.499C425.481 -175.553 425.218 -175.631 425.063 -175.67L424.946 -175.717L424.857 -175.834C424.659 -176.17 424.43 -176.475 424.21 -176.763L424.18 -176.787L424.173 -176.809C424.069 -176.982 423.967 -177.145 423.85 -177.308C423.298 -178.121 422.812 -179.955 422.548 -180.961C420.929 -187.003 420.394 -193.552 419.819 -200.491L419.761 -201.021C419.753 -201.24 419.738 -201.451 419.702 -201.654L419.599 -202.511C419.57 -202.801 419.532 -203.082 419.481 -203.347C419.452 -203.495 419.423 -203.628 419.392 -203.769L419.386 -203.816C418.562 -213.917 418.032 -222.254 417.73 -230.028C417.267 -241.737 417.172 -252.422 417.481 -262.701C417.774 -273.208 418.12 -283.472 419.003 -293.456C419.583 -299.957 420.577 -308.458 423.173 -316.42C423.989 -318.934 424.916 -321.556 426.151 -323.649L426.276 -323.836H426.489C426.615 -323.836 426.704 -323.821 426.739 -323.812C429.991 -323.056 432.674 -322.134 434.939 -320.979C444.14 -316.304 452.884 -310.989 462.143 -305.352C462.143 -305.352 464.504 -303.916 465.445 -303.331C479.411 -294.853 493.171 -285.183 506.07 -275.972L507.718 -274.793C513.637 -270.571 519.771 -266.208 526.147 -262.156L526.412 -261.992L526.317 -261.68C524.964 -257.223 524.162 -252.525 523.875 -247.34C523.691 -243.946 523.853 -240.567 524.368 -237.038ZM576.663 -229.732C573.03 -225.757 568.052 -223.471 563.007 -223.471H562.955C553.932 -223.488 544.224 -231.511 544.173 -243.391C544.143 -248.8 546.114 -253.882 549.703 -257.706C553.233 -261.461 557.91 -263.537 562.867 -263.537H562.955C569.751 -263.506 574.185 -260.181 576.7 -257.379C580.083 -253.632 581.995 -248.597 581.819 -243.899C581.811 -243.64 581.811 -243.369 581.819 -243.11C581.966 -238.348 580.076 -233.471 576.663 -229.732ZM589.254 -212.02L588.805 -212.692L589.041 -212.933C589.121 -213.028 589.173 -213.097 589.254 -213.167V-212.02ZM589.254 -289.109C586.01 -282.216 583.856 -277.595 583.856 -277.595C574.649 -288.593 554.439 -283.193 553.475 -283.136L553.262 -283.121L553.138 -283.308C552.174 -284.746 516.322 -344.443 516.123 -344.801C516.123 -344.801 514.028 -348.781 513.637 -349.219L513.601 -349.265C513.601 -349.265 512.181 -351.763 511.476 -353.012C510.667 -354.464 509.857 -355.916 509.026 -357.361C504.298 -365.673 500.635 -374.322 498.164 -383.063C498.054 -383.455 497.943 -383.852 497.819 -384.235C497.613 -384.961 497.355 -385.843 497.281 -386.28L497.267 -386.336L497.281 -386.375C497.304 -387.014 497.289 -387.646 497.223 -388.263L497.142 -389.06L497.119 -389.278V-389.326C497.142 -389.559 497.157 -389.77 497.178 -389.997L497.194 -390.536L497.289 -390.638C497.436 -390.801 497.62 -390.973 497.841 -391.153C499.37 -392.393 501.459 -393.167 504.415 -393.58C504.739 -393.62 505.092 -393.689 505.423 -393.768L506.085 -393.931H506.092C506.556 -393.978 506.997 -394.072 507.445 -394.181L507.909 -394.305H507.931C508.21 -394.329 508.489 -394.362 508.754 -394.408L510.093 -394.627C510.225 -394.65 510.372 -394.681 510.512 -394.712H510.556C510.814 -394.744 511.063 -394.768 511.313 -394.806L512.233 -394.947C512.446 -394.978 512.659 -395.026 512.888 -395.064L512.925 -395.088H513.167C513.564 -395.088 513.991 -395.103 514.425 -395.173L515.763 -395.337C516.057 -395.368 516.329 -395.438 516.624 -395.494L516.667 -395.509H516.696C517.02 -395.509 517.337 -395.524 517.66 -395.572L518.587 -395.68C519.05 -395.728 519.52 -395.822 519.977 -395.938L520.036 -395.955H520.094C520.308 -395.938 520.506 -395.923 520.712 -395.923C521.051 -395.923 521.403 -395.955 521.757 -395.978L523.036 -396.119C523.404 -396.158 523.771 -396.221 524.147 -396.306C525.5 -396.604 526.905 -396.76 528.295 -396.76C528.619 -396.76 528.934 -396.744 529.258 -396.737C529.428 -396.721 529.582 -396.721 529.75 -396.721C530.052 -396.721 530.346 -396.737 530.656 -396.76L531.883 -396.884C532.443 -396.924 533.001 -397.009 533.538 -397.166L533.605 -397.173H533.648C533.861 -397.166 534.046 -397.166 534.244 -397.166C534.502 -397.166 534.744 -397.166 534.994 -397.188L535.899 -397.251C536.554 -397.305 537.222 -397.431 537.87 -397.603C537.966 -397.634 538.282 -397.705 539.054 -397.705C539.422 -397.705 539.848 -397.688 540.451 -397.649C540.635 -397.649 540.819 -397.634 540.995 -397.634C541.334 -397.634 541.673 -397.666 542.011 -397.688C546.534 -398.158 551.13 -398.298 555.844 -398.391C560.19 -398.485 564.449 -398.533 568.508 -398.533C575.774 -398.533 582.635 -398.369 589.254 -398.071V-289.109ZM589.254 -420.383C582.621 -420.672 575.737 -420.813 568.508 -420.813C564.316 -420.813 559.904 -420.766 555.416 -420.672C550.747 -420.563 545.761 -420.438 540.767 -419.953H540.716C540.105 -419.976 539.576 -419.976 539.054 -419.976C537.259 -419.976 535.619 -419.829 534.068 -419.532L534.024 -419.516H533.972C533.722 -419.532 533.472 -419.54 533.222 -419.54C531.92 -419.54 530.596 -419.375 529.295 -419.04L529.244 -419.032H529.199C528.891 -419.04 528.582 -419.04 528.258 -419.04C525.772 -419.04 523.25 -418.797 520.771 -418.298H520.719H520.682C520.352 -418.321 520.028 -418.345 519.712 -418.345C518.579 -418.345 517.381 -418.198 516.19 -417.915L516.145 -417.908H516.087C515.999 -417.908 515.903 -417.915 515.814 -417.915C514.748 -417.915 513.682 -417.767 512.645 -417.502L512.601 -417.479C512.601 -417.479 512.351 -417.502 512.262 -417.502C511.226 -417.502 510.203 -417.385 509.21 -417.135H509.174L509.13 -417.119C508.166 -417.119 507.203 -416.971 506.269 -416.714L506.232 -416.691H506.18C505.232 -416.652 504.283 -416.496 503.371 -416.207H503.334H503.298C502.408 -416.09 501.518 -415.872 500.658 -415.536L500.621 -415.519L500.576 -415.504C494.391 -414.489 489.325 -412.295 485.059 -408.83C478.432 -403.428 476.609 -396.966 476.27 -392.508V-392.47L476.255 -392.43C475.778 -390.292 475.778 -388.029 476.255 -385.906L476.27 -385.867L476.278 -385.82C476.344 -382.464 477.138 -379.755 477.786 -377.577C477.874 -377.257 477.962 -376.96 478.05 -376.664C481.036 -366.111 485.405 -355.745 491.053 -345.832C491.854 -344.419 492.656 -343.021 493.443 -341.609L493.524 -341.446C494.303 -340.063 495.09 -338.666 495.884 -337.277C496.215 -336.582 496.576 -335.942 496.973 -335.357L496.994 -335.341L497.002 -335.324C497.164 -335.012 497.326 -334.684 497.51 -334.395C497.834 -333.841 498.193 -333.201 498.554 -332.523C499.26 -331.251 500.062 -329.797 501.054 -328.316L501.069 -328.277L501.091 -328.253C501.488 -327.418 501.974 -326.622 502.547 -325.896L502.562 -325.873L502.57 -325.858C504.379 -322.633 506.283 -319.621 508.144 -316.716C509.048 -315.28 509.982 -313.812 510.865 -312.376C515.175 -305.375 519.881 -298.092 525.257 -290.107L524.728 -289.537C522.985 -290.762 521.234 -292.019 519.448 -293.291L517.778 -294.47C504.562 -303.891 490.457 -313.836 475.881 -322.68C474.814 -323.321 472.601 -324.678 472.601 -324.678C463.415 -330.267 453.913 -336.051 444.015 -341.078C440.257 -342.99 436.058 -344.473 431.203 -345.597C429.652 -345.956 428.012 -346.128 426.387 -346.128C424.821 -346.128 423.209 -345.963 421.591 -345.644C416.65 -344.661 412.451 -341.756 409.465 -337.253C406.486 -332.789 404.758 -328.096 403.324 -323.695C400 -313.501 398.778 -303.29 398.095 -295.532C397.161 -284.917 396.8 -274.261 396.477 -263.387C396.175 -252.561 396.249 -241.329 396.734 -229.074C397.073 -220.823 397.631 -212.003 398.506 -201.334C398.543 -200.88 398.617 -200.389 398.69 -199.92L398.698 -199.881V-199.842C398.706 -199.054 398.801 -198.242 398.977 -197.462L398.985 -197.43V-197.401C399.639 -189.469 400.352 -182.296 402.338 -174.873C403.081 -172.095 404.008 -169.105 405.662 -166.138L405.692 -166.084C405.78 -165.873 405.883 -165.655 405.986 -165.444C406.236 -164.936 406.523 -164.452 406.839 -163.992C407.346 -163.134 407.927 -162.376 408.59 -161.698L408.611 -161.681L408.619 -161.659C412.163 -156.999 417.076 -154.212 423.239 -153.384C423.989 -153.283 425.129 -153.158 426.401 -153.158C428.151 -153.158 429.836 -153.408 431.417 -153.908H431.446L431.461 -153.923C434.623 -154.438 437.455 -155.399 439.933 -156.235L440.353 -156.389C451.708 -160.239 461.584 -165.984 469.732 -171.103C486.221 -181.437 502.451 -192.678 519.337 -205.457L519.881 -204.894C518.557 -202.788 517.175 -200.602 515.653 -198.198C512.806 -193.749 510.012 -189.221 507.313 -184.835L507.291 -184.796C505.452 -181.799 503.548 -178.708 501.65 -175.671C498.201 -170.184 495.053 -164.604 492.362 -159.779C488.706 -153.229 484.816 -146.205 481.139 -139.087C480.33 -137.518 479.507 -135.957 478.683 -134.38L478.572 -134.169C477.22 -131.609 475.851 -128.947 474.491 -126.293C474.307 -125.934 474.05 -125.482 473.792 -125.029C472.947 -123.545 471.806 -121.523 470.998 -119.003C469.203 -114.64 467.902 -110.682 466.99 -106.842C466.18 -103.362 465.937 -100.043 466.254 -96.7257C466.799 -90.9647 469.358 -86.0327 473.674 -82.4647C477.447 -79.3267 481.499 -77.5477 485.015 -76.1197C495.105 -72.0447 505.166 -70.6087 512.821 -69.8107C513.395 -69.7487 513.954 -69.6948 514.52 -69.6387C503.201 -65.8637 492.359 -60.2717 482.26 -52.9627C480.616 -53.5317 478.98 -54.1397 477.351 -54.7937C460.055 -61.8097 452.252 -73.2137 448.759 -81.5347C445.287 -89.7777 442.515 -103.461 448.89 -121.836C450.737 -127.12 452.869 -132.193 455.193 -137.111C446.382 -133.176 436.83 -130.311 426.975 -130.311C424.79 -130.311 422.614 -130.467 420.54 -130.756C405.994 -132.707 393.999 -141.559 386.761 -155.68C382.423 -164.149 379.738 -174.218 378.304 -187.409C376.084 -207.969 374.892 -228.357 374.804 -247.972C374.701 -267.182 374.892 -289.506 378.297 -311.16C380.452 -324.771 383.724 -335.576 388.328 -344.201C396.881 -360.179 410.318 -368.968 426.173 -368.968C427.791 -368.968 429.445 -368.882 431.101 -368.687C441.984 -367.469 451.994 -363.387 461.268 -358.336C457.782 -367.399 453.575 -379.255 454.502 -392.034C455.627 -407.402 462.621 -420.047 474.734 -428.587C482.706 -434.214 492.516 -437.821 504.731 -439.616C521.183 -442.043 538.907 -443.3 560.484 -443.59C564.89 -443.652 568.566 -443.675 572.06 -443.675C577.237 -443.675 583.055 -443.62 589.254 -443.402V-420.383ZM589.254 -465.819C583.061 -466.03 577.245 -466.085 572.06 -466.085C568.456 -466.085 564.698 -466.061 560.227 -466.006C537.737 -465.703 519.168 -464.375 501.82 -461.823C486.405 -459.551 473.726 -454.783 463.054 -447.257C445.566 -434.941 435.05 -415.943 433.432 -393.758C433.358 -392.813 433.322 -391.902 433.285 -390.987C430.916 -391.253 428.52 -391.385 426.173 -391.385C402.728 -391.385 382.246 -378.216 369.965 -355.261C364.11 -344.318 360.022 -331.102 357.47 -314.874C353.792 -291.457 353.58 -268.001 353.668 -247.856C353.778 -227.419 354.999 -206.211 357.323 -184.833C359.073 -168.707 362.53 -156.039 368.199 -144.978C373.392 -134.863 380.342 -126.535 388.85 -120.258C397.455 -113.896 407.221 -109.946 417.878 -108.51C419.952 -108.229 422.107 -108.034 424.276 -107.948C422.872 -92.8357 425.96 -80.7677 429.454 -72.4247C434.123 -61.3187 443.787 -46.5797 463.6 -36.6597C457.002 -29.8767 451.538 -23.0857 447.052 -17.0987C446.089 -17.2867 445.103 -17.4817 444.095 -17.6607C423.276 -30.7117 412.355 -48.1017 406.67 -61.6307C403.493 -69.1857 401.286 -77.2097 400.073 -85.4847C390.976 -88.3567 382.437 -92.7127 374.59 -98.5107C362.86 -107.154 353.337 -118.548 346.27 -132.318C339.032 -146.462 334.664 -162.181 332.532 -181.797C330.097 -204.152 328.825 -226.32 328.722 -247.707C328.619 -268.961 328.833 -293.76 332.848 -319.237C335.899 -338.587 340.937 -354.635 348.262 -368.334C356.382 -383.524 367.692 -396.067 380.959 -404.592C390.505 -410.727 401.117 -414.84 412.193 -416.714C414.245 -424.036 417.12 -431.013 420.768 -437.625C427.784 -450.286 437.359 -460.963 449.236 -469.323C463.099 -479.103 479.183 -485.223 498.385 -488.064C516.8 -490.781 536.348 -492.178 559.933 -492.481C564.522 -492.552 568.368 -492.576 572.06 -492.576C577.245 -492.576 583.069 -492.513 589.254 -492.311V-465.819ZM589.254 -512.707C583.069 -512.902 577.267 -512.965 572.06 -512.965C568.272 -512.965 564.345 -512.934 559.683 -512.871C553.579 -512.786 547.718 -512.637 542.069 -512.403L400.331 -662.84L435.91 -700.619L589.254 -537.873V-512.707ZM589.254 -566.261L449.302 -714.81L477.3 -744.533H570.015C580.643 -744.533 589.254 -735.393 589.254 -724.114V-566.261ZM-120.63 273.33C-120.62 273.33 -120.616 273.322 -120.612 273.306L-120.657 273.323C-120.653 273.322 -120.642 273.33 -120.63 273.33ZM-119.252 272.73H-119.248L-119.311 272.699C-119.289 272.713 -119.267 272.713 -119.252 272.73ZM565.313 235.179C564.751 234.756 564.174 234.35 563.581 233.961C560.615 232.02 557.264 230.511 553.55 229.415C551.245 228.733 548.914 228.204 546.558 227.851C545.969 227.762 545.379 227.685 544.787 227.62C543.012 227.422 541.224 227.326 539.423 227.341C534.698 227.362 530.215 228.013 525.99 229.323C525.286 229.542 524.589 229.778 523.899 230.033C517.691 232.329 512.07 236.118 507.093 241.492C501.305 247.76 497.739 255.37 496.503 264.042C495.598 270.38 496.29 276.71 498.452 282.713C500.607 288.7 503.291 294.438 507.041 299.526C512.164 306.486 518.643 311.115 526.455 313.33C527.571 313.646 528.714 313.913 529.884 314.131C532.578 314.638 535.247 314.914 537.887 314.927C538.943 314.932 539.994 314.895 541.041 314.814C541.565 314.773 542.086 314.72 542.607 314.658C546.774 314.151 550.859 312.918 554.844 310.822C557.284 309.538 559.544 308.076 561.63 306.441C563.194 305.214 564.66 303.892 566.033 302.475C570.149 298.223 573.416 293.121 575.914 287.234C576.506 285.842 577.023 284.449 577.47 283.052C577.693 282.355 577.898 281.655 578.087 280.955C578.463 279.555 578.769 278.153 579.009 276.747C579.129 276.043 579.232 275.34 579.319 274.636C579.491 273.227 579.599 271.817 579.642 270.403C579.73 267.574 579.564 264.734 579.167 261.883C578.77 259.032 578.139 256.172 577.296 253.302C576.374 250.14 575.171 247.286 573.701 244.729C572.597 242.809 571.343 241.057 569.944 239.467C568.543 237.877 566.998 236.449 565.313 235.179Z" fill="#003B7D"/>
</g>
<mask id="mask10_372_18443" style="mask-type:luminance" maskUnits="userSpaceOnUse" x="0" y="0" width="552" height="50">
<path d="M0 0V49.671H551.362C551.362 22.238 529.123 0 501.69 0H0Z" fill="white"/>
</mask>
<g mask="url(#mask10_372_18443)">
<path d="M611.347 303.477V-715.291C611.347 -744.586 589.122 -768.408 561.802 -768.408H-132.625C-159.943 -768.408 -182.174 -744.586 -182.174 -715.291V303.477C-182.174 332.763 -159.943 356.594 -132.625 356.594H561.802C589.122 356.594 611.347 332.763 611.347 303.477ZM589.056 312.189C589.056 323.484 580.525 332.624 570.016 332.624H-140.832C-151.359 332.624 -159.883 323.484 -159.883 312.189V-724.01C-159.883 -735.281 -151.359 -744.447 -140.832 -744.447H570.016C580.525 -744.447 589.056 -735.282 589.056 -724.01V312.189Z" fill="white"/>
</g>
</svg>
